<?xml version="1.0" encoding="utf-8"?>
<!-- Generator: Adobe Illustrator 21.1.0, SVG Export Plug-In . SVG Version: 6.00 Build 0)  -->
<svg version="1.1" id="Слой_1" xmlns="http://www.w3.org/2000/svg" xmlns:xlink="http://www.w3.org/1999/xlink" x="0px" y="0px"
	 viewBox="0 0 250 250" style="enable-background:new 0 0 250 250;" xml:space="preserve">
<style type="text/css">
	.st0{fill:url(#SVGID_1_);}
	.st1{fill:url(#SVGID_2_);}
</style>
<linearGradient id="SVGID_1_" gradientUnits="userSpaceOnUse" x1="-560.9702" y1="677.7599" x2="1249.4578" y2="-781.0966" gradientTransform="matrix(1 0 0 -1 0 250)">
	<stop  offset="0" style="stop-color:#FA247C"/>
	<stop  offset="2.382660e-02" style="stop-color:#FA3077"/>
	<stop  offset="6.677425e-02" style="stop-color:#F94F6B"/>
	<stop  offset="0.1239" style="stop-color:#F88357"/>
	<stop  offset="0.1923" style="stop-color:#F6C83C"/>
	<stop  offset="0.2282" style="stop-color:#F5F02D"/>
	<stop  offset="0.2541" style="stop-color:#F5E932"/>
	<stop  offset="0.2915" style="stop-color:#F6D63F"/>
	<stop  offset="0.3358" style="stop-color:#F8B754"/>
	<stop  offset="0.3851" style="stop-color:#FA8B71"/>
	<stop  offset="0.4107" style="stop-color:#FB7282"/>
	<stop  offset="0.5496" style="stop-color:#AE20F2"/>
	<stop  offset="0.7282" style="stop-color:#60C0D2"/>
	<stop  offset="0.748" style="stop-color:#77B1BE"/>
	<stop  offset="0.7965" style="stop-color:#9A8BAD"/>
	<stop  offset="0.861" style="stop-color:#C35E99"/>
	<stop  offset="0.9188" style="stop-color:#E03E8B"/>
	<stop  offset="0.9671" style="stop-color:#F22A82"/>
	<stop  offset="1" style="stop-color:#F9237F"/>
</linearGradient>
<path class="st0" d="M125,250C56.1,250,0,193.9,0,125S56.1,0,125,0s125,56.1,125,125S194,250,125,250z M125,11.2
	c-62.7,0-113.7,51-113.7,113.7s51,113.7,113.7,113.7s113.7-51,113.7-113.7S187.8,11.2,125,11.2z"/>
<g>
	
		<linearGradient id="SVGID_2_" gradientUnits="userSpaceOnUse" x1="-560.9551" y1="677.7785" x2="1249.4728" y2="-781.0781" gradientTransform="matrix(1 0 0 -1 0 250)">
		<stop  offset="0" style="stop-color:#FA247C"/>
		<stop  offset="2.382660e-02" style="stop-color:#FA3077"/>
		<stop  offset="6.677425e-02" style="stop-color:#F94F6B"/>
		<stop  offset="0.1239" style="stop-color:#F88357"/>
		<stop  offset="0.1923" style="stop-color:#F6C83C"/>
		<stop  offset="0.2282" style="stop-color:#F5F02D"/>
		<stop  offset="0.2541" style="stop-color:#F5E932"/>
		<stop  offset="0.2915" style="stop-color:#F6D63F"/>
		<stop  offset="0.3358" style="stop-color:#F8B754"/>
		<stop  offset="0.3851" style="stop-color:#FA8B71"/>
		<stop  offset="0.4107" style="stop-color:#FB7282"/>
		<stop  offset="0.5496" style="stop-color:#AE20F2"/>
		<stop  offset="0.7282" style="stop-color:#60C0D2"/>
		<stop  offset="0.748" style="stop-color:#77B1BE"/>
		<stop  offset="0.7965" style="stop-color:#9A8BAD"/>
		<stop  offset="0.861" style="stop-color:#C35E99"/>
		<stop  offset="0.9188" style="stop-color:#E03E8B"/>
		<stop  offset="0.9671" style="stop-color:#F22A82"/>
		<stop  offset="1" style="stop-color:#F9237F"/>
	</linearGradient>
	<path class="st1" d="M123.4,62.9c2.9-1.5,6.6,2,4.9,4.9c-0.9,2.4-4.4,3.1-6.1,1.2C120.4,67.4,121,63.9,123.4,62.9 M91.7,66.3
		c1.8-0.7,4,0.9,3.9,2.8c0.2,2.1-2.4,3.6-4.2,2.7C88.9,70.9,89.3,67,91.7,66.3 M156.6,72c-2.8-0.4-3.3-4.7-0.6-5.6
		c2.1-1.1,4,0.9,4.4,2.8C159.9,70.9,158.5,72.4,156.6,72 M98.9,79.8c2.9-1.9,7.3,0.9,6.8,4.4c-0.1,3.5-4.8,5.5-7.4,3.2
		C95.7,85.5,96.1,81.3,98.9,79.8 M144.5,81.8c1.3-3.4,6.7-3.5,8.2-0.2c1.5,2.6-0.4,5.9-3.1,6.7C146.3,89,142.9,85.1,144.5,81.8
		 M119.6,88.2c0-2.9,2.7-5.2,5.5-5.4c1.9,0.4,3.9,1.2,4.7,3.1c1.5,2.6,0.1,6.1-2.5,7.4c-1.2,0.7-2.7,0.5-4,0.4
		C121.1,92.5,119.4,90.5,119.6,88.2 M72.4,92.4c2.7-1.6,6.5,1.4,5.4,4.4c-0.6,2.6-4,3.6-6,2C69.7,97.2,70.1,93.6,72.4,92.4
		 M173.6,92.4c2.4-1.8,6.1,0.2,5.9,3.2c0.1,2.7-3.2,4.7-5.4,3.3C171.4,97.8,171.2,94,173.6,92.4 M132.8,97.7
		c3.9-1.4,8.3,0.2,10.6,3.6c2.8,4.1,1.3,10.5-3.2,12.9c-4.6,2.8-11.4,0.5-13.1-4.7C125.2,105,128.1,99.2,132.8,97.7 M110.4,98.2
		c4.2-2,10-0.4,12,4c2.4,4.2,0.6,10.1-3.8,12.2c-4.4,2.5-10.3,0.6-12.5-4C103.7,106.2,105.8,100.2,110.4,98.2 M87.8,106
		c0.4-2.7,2.9-4.5,5.5-4.7c2.8,0.4,5.1,2.5,5.3,5.3c-0.2,2.8-2.4,5.5-5.3,5.5C90.2,112.4,87.3,109.1,87.8,106 M154.3,101.8
		c3.4-2,8,0.9,7.9,4.7c0.2,4.1-4.9,6.9-8.2,4.6C150.4,109.1,150.6,103.5,154.3,101.8 M101.2,116.2c3.9-1.1,8.5,0.8,10.3,4.4
		c2.1,3.6,1.3,8.7-2,11.4c-4.2,3.9-12,2.4-14.2-2.9C92.8,124.1,96,117.5,101.2,116.2 M143.8,116.2c3.8-1.1,8.3,0.4,10.3,3.9
		c2.7,4,1.4,9.9-2.6,12.5c-4.2,2.9-10.8,1.4-13.2-3.3C135.6,124.5,138.4,117.7,143.8,116.2 M76,120.8c3.4-1.3,7.2,2.5,5.8,5.9
		c-0.8,3.1-5.2,4.2-7.4,1.9C71.7,126.4,72.7,121.7,76,120.8 M167.9,125.6c-0.1-2.8,2-5.3,4.8-5.4c2.4,0.4,4.6,2.2,4.4,4.8
		c0.2,3.3-3.8,5.6-6.7,4C169.2,128.3,168.5,126.9,167.9,125.6 M59.3,122.4c2-0.9,4.6,0.8,4.1,3.2c-0.1,2.6-3.9,3.5-5.3,1.4
		C56.9,125.5,57.6,123.1,59.3,122.4z M188,122.3c1.4-1.1,3.8-0.2,4.4,1.4c0.9,1.9-0.8,4.4-2.8,4C186.5,128.1,185.7,123.6,188,122.3
		 M112.3,134.6c5.4-1.4,11.2,3.1,11.2,8.6c0.4,5.6-5.3,10.6-10.8,9.3c-4.2-0.7-7.6-4.8-7.4-9.1C105.2,139.3,108.3,135.6,112.3,134.6
		 M133.6,134.6c5.4-1.5,11.4,3.1,11.3,8.7c0.2,5.5-5.2,10.2-10.6,9.2c-5.1-0.7-8.8-6.2-7.4-11.2
		C127.6,138.2,130.4,135.5,133.6,134.6 M92.5,138.1c3.8-0.6,7.3,3.5,5.8,7.2c-1.1,3.8-6.7,4.8-9.2,1.8
		C86.3,143.9,88.5,138.5,92.5,138.1 M155,138.2c3.4-1.4,7.5,1.5,7.3,5.2c0.1,4-4.9,6.8-8.2,4.5C150.3,145.7,150.9,139.5,155,138.2
		 M172.4,155.7c-1.3-2.5,1.1-5.8,3.8-5.3c1.4,0,2.4,1.1,3.2,2c0.2,1.4,0.5,3.2-0.7,4.4C177,158.7,173.3,158.2,172.4,155.7
		 M72.4,151.1c2.6-1.6,6.2,0.8,5.6,3.8c-0.4,2.6-3.6,4.1-5.8,2.6C70,156.3,70,152.4,72.4,151.1 M122.8,156.6
		c3.3-1.5,7.6,1.4,7.3,5.1c0.2,4.1-5.1,6.8-8.2,4.5C118.2,164.2,118.8,157.9,122.8,156.6 M99.5,162c2.8-1.5,6.7,1.1,6.3,4.2
		c0.1,2.6-2.5,4.8-5.1,4.5c-2.1,0-3.5-2-4.2-3.8C96.7,165.1,97.5,162.9,99.5,162 M146.8,162.2c2.9-1.8,7.1,0.8,6.8,4.2
		c0.1,3.5-4.6,5.9-7.3,3.5C143.6,168,143.8,163.6,146.8,162.2 M154.9,182.5c-1.3-2,0.2-4.4,2.4-4.8c1.6,0.4,3.5,1.6,3.2,3.6
		C160.2,183.9,156.3,184.7,154.9,182.5 M89.7,180.7c0.5-1.5,1.8-3.1,3.6-2.7c2.7,0.2,3.4,4.2,1.2,5.4C92.3,185,90,183,89.7,180.7
		 M121.1,182.5c0.5-2.4,3.5-3.4,5.4-2.2c1.3,0.6,1.6,2,2,3.3c-0.2,0.6-0.4,1.3-0.5,1.9c-0.8,0.9-1.9,1.9-3.2,1.9
		C122.5,187.7,120.3,184.9,121.1,182.5"/>
</g>
<title>bcn</title>
</svg>
