<?xml version="1.0" encoding="utf-8"?>
<!-- Generator: Adobe Illustrator 21.1.0, SVG Export Plug-In . SVG Version: 6.00 Build 0)  -->
<svg version="1.1" id="Слой_1" xmlns="http://www.w3.org/2000/svg" xmlns:xlink="http://www.w3.org/1999/xlink" x="0px" y="0px"
	 viewBox="0 0 250 250" style="enable-background:new 0 0 250 250;" xml:space="preserve">
<style type="text/css">
	.st0{fill:url(#SVGID_1_);}
	.st1{fill:url(#SVGID_2_);}
</style>
<linearGradient id="SVGID_1_" gradientUnits="userSpaceOnUse" x1="-1107.2584" y1="1117.9633" x2="703.1695" y2="-340.8934" gradientTransform="matrix(1 0 0 -1 0 250)">
	<stop  offset="0" style="stop-color:#FA247C"/>
	<stop  offset="2.382660e-02" style="stop-color:#FA3077"/>
	<stop  offset="6.677425e-02" style="stop-color:#F94F6B"/>
	<stop  offset="0.1239" style="stop-color:#F88357"/>
	<stop  offset="0.1923" style="stop-color:#F6C83C"/>
	<stop  offset="0.2282" style="stop-color:#F5F02D"/>
	<stop  offset="0.2541" style="stop-color:#F5E932"/>
	<stop  offset="0.2915" style="stop-color:#F6D63F"/>
	<stop  offset="0.3358" style="stop-color:#F8B754"/>
	<stop  offset="0.3851" style="stop-color:#FA8B71"/>
	<stop  offset="0.4107" style="stop-color:#FB7282"/>
	<stop  offset="0.5496" style="stop-color:#AE20F2"/>
	<stop  offset="0.7282" style="stop-color:#60C0D2"/>
	<stop  offset="0.748" style="stop-color:#77B1BE"/>
	<stop  offset="0.7965" style="stop-color:#9A8BAD"/>
	<stop  offset="0.861" style="stop-color:#C35E99"/>
	<stop  offset="0.9188" style="stop-color:#E03E8B"/>
	<stop  offset="0.9671" style="stop-color:#F22A82"/>
	<stop  offset="1" style="stop-color:#F9237F"/>
</linearGradient>
<path class="st0" d="M125,250C56.1,250,0,193.9,0,125S56.1,0,125,0s125,56.1,125,125S193.9,250,125,250z M125,11.2
	c-62.7,0-113.7,51-113.7,113.7s51,113.7,113.7,113.7s113.7-51,113.7-113.7C238.7,62.2,187.7,11.2,125,11.2z"/>
<title>bcn</title>
<linearGradient id="SVGID_2_" gradientUnits="userSpaceOnUse" x1="-1107.2434" y1="1117.9821" x2="703.1844" y2="-340.8745" gradientTransform="matrix(1 0 0 -1 0 250)">
	<stop  offset="0" style="stop-color:#FA247C"/>
	<stop  offset="2.382660e-02" style="stop-color:#FA3077"/>
	<stop  offset="6.677425e-02" style="stop-color:#F94F6B"/>
	<stop  offset="0.1239" style="stop-color:#F88357"/>
	<stop  offset="0.1923" style="stop-color:#F6C83C"/>
	<stop  offset="0.2282" style="stop-color:#F5F02D"/>
	<stop  offset="0.2541" style="stop-color:#F5E932"/>
	<stop  offset="0.2915" style="stop-color:#F6D63F"/>
	<stop  offset="0.3358" style="stop-color:#F8B754"/>
	<stop  offset="0.3851" style="stop-color:#FA8B71"/>
	<stop  offset="0.4107" style="stop-color:#FB7282"/>
	<stop  offset="0.5496" style="stop-color:#AE20F2"/>
	<stop  offset="0.7282" style="stop-color:#60C0D2"/>
	<stop  offset="0.748" style="stop-color:#77B1BE"/>
	<stop  offset="0.7965" style="stop-color:#9A8BAD"/>
	<stop  offset="0.861" style="stop-color:#C35E99"/>
	<stop  offset="0.9188" style="stop-color:#E03E8B"/>
	<stop  offset="0.9671" style="stop-color:#F22A82"/>
	<stop  offset="1" style="stop-color:#F9237F"/>
</linearGradient>
<path class="st1" d="M142.8,183.7H91.1v-28.6H61.5v-21h29.6v-12.7H61.5v-21h29.6V66.2h55.5c19.9,0,33.6,16.3,33.6,31
	c0,8.6-4.7,14.8-8.3,18.3c10.3,6.1,16.8,17.5,16.6,29.9C188.4,167.9,169.7,183.7,142.8,183.7z M97.7,177.2h45l0,0
	c10.8,0,20.7-2.9,27.8-8.3c7.4-5.6,11.4-13.8,11.4-23.4c0.4-11.5-6.6-21.9-17.2-26l-6.2-2.4l5.6-3.5c0.2-0.1,9.6-6.2,9.6-16.3
	c0-10.2-10.3-24.5-27.2-24.5H97.7v34.1H68.1v8h29.6v25.9H68.1v8h29.6L97.7,177.2L97.7,177.2z M141.6,165.5H111v-40.2h30.3
	c25,0,28.8,13.5,28.8,21.6C170.2,160.5,154.8,165.5,141.6,165.5z M117.6,158.9h24c8.1,0,22-2.6,22-12c0-10-7.5-15.1-22.2-15.1h-23.8
	V158.9z M137.9,119c-0.1,0-0.1,0-0.2,0H111V81.4h27.3c10.9,0,22.8,5.8,22.8,18.5c0,4.7-1.8,9.1-5.2,12.3
	C151.7,116.5,145,119,137.9,119z M117.6,112.4h20.1c5.4-0.1,10.6-1.8,13.6-4.8c2.1-2.1,3.2-4.7,3.2-7.6c0-8.8-8.7-11.9-16.2-11.9
	h-20.7V112.4z"/>
</svg>
