<?xml version="1.0" encoding="utf-8"?>
<!-- Generator: Adobe Illustrator 21.1.0, SVG Export Plug-In . SVG Version: 6.00 Build 0)  -->
<svg version="1.1" id="Слой_1" xmlns="http://www.w3.org/2000/svg" xmlns:xlink="http://www.w3.org/1999/xlink" x="0px" y="0px"
	 viewBox="0 0 250 250" style="enable-background:new 0 0 250 250;" xml:space="preserve">
<style type="text/css">
	.st0{fill:url(#SVGID_1_);}
	.st1{fill:url(#SVGID_2_);}
	.st2{fill:url(#SVGID_3_);}
	.st3{fill:url(#SVGID_4_);}
	.st4{fill:url(#SVGID_5_);}
</style>
<g>
	
		<linearGradient id="SVGID_1_" gradientUnits="userSpaceOnUse" x1="-994.0651" y1="1026.7512" x2="816.3626" y2="-432.1053" gradientTransform="matrix(1 0 0 -1 0 250)">
		<stop  offset="0" style="stop-color:#FA247C"/>
		<stop  offset="2.382660e-02" style="stop-color:#FA3077"/>
		<stop  offset="6.677425e-02" style="stop-color:#F94F6B"/>
		<stop  offset="0.1239" style="stop-color:#F88357"/>
		<stop  offset="0.1923" style="stop-color:#F6C83C"/>
		<stop  offset="0.2282" style="stop-color:#F5F02D"/>
		<stop  offset="0.2541" style="stop-color:#F5E932"/>
		<stop  offset="0.2915" style="stop-color:#F6D63F"/>
		<stop  offset="0.3358" style="stop-color:#F8B754"/>
		<stop  offset="0.3851" style="stop-color:#FA8B71"/>
		<stop  offset="0.4107" style="stop-color:#FB7282"/>
		<stop  offset="0.5496" style="stop-color:#AE20F2"/>
		<stop  offset="0.7282" style="stop-color:#60C0D2"/>
		<stop  offset="0.748" style="stop-color:#77B1BE"/>
		<stop  offset="0.7965" style="stop-color:#9A8BAD"/>
		<stop  offset="0.861" style="stop-color:#C35E99"/>
		<stop  offset="0.9188" style="stop-color:#E03E8B"/>
		<stop  offset="0.9671" style="stop-color:#F22A82"/>
		<stop  offset="1" style="stop-color:#F9237F"/>
	</linearGradient>
	<path class="st0" d="M125,250C56.1,250,0,193.9,0,125S56.1,0,125,0s125,56.1,125,125S193.9,250,125,250z M125,11.2
		c-62.7,0-113.7,51-113.7,113.7s51,113.7,113.7,113.7s113.7-51,113.7-113.7S187.7,11.2,125,11.2z"/>
</g>
<g>
	<g>
		
			<linearGradient id="SVGID_2_" gradientUnits="userSpaceOnUse" x1="-965.6767" y1="1061.9811" x2="844.7512" y2="-396.8755" gradientTransform="matrix(1 0 0 -1 0 250)">
			<stop  offset="0" style="stop-color:#FA247C"/>
			<stop  offset="2.382660e-02" style="stop-color:#FA3077"/>
			<stop  offset="6.677425e-02" style="stop-color:#F94F6B"/>
			<stop  offset="0.1239" style="stop-color:#F88357"/>
			<stop  offset="0.1923" style="stop-color:#F6C83C"/>
			<stop  offset="0.2282" style="stop-color:#F5F02D"/>
			<stop  offset="0.2541" style="stop-color:#F5E932"/>
			<stop  offset="0.2915" style="stop-color:#F6D63F"/>
			<stop  offset="0.3358" style="stop-color:#F8B754"/>
			<stop  offset="0.3851" style="stop-color:#FA8B71"/>
			<stop  offset="0.4107" style="stop-color:#FB7282"/>
			<stop  offset="0.5496" style="stop-color:#AE20F2"/>
			<stop  offset="0.7282" style="stop-color:#60C0D2"/>
			<stop  offset="0.748" style="stop-color:#77B1BE"/>
			<stop  offset="0.7965" style="stop-color:#9A8BAD"/>
			<stop  offset="0.861" style="stop-color:#C35E99"/>
			<stop  offset="0.9188" style="stop-color:#E03E8B"/>
			<stop  offset="0.9671" style="stop-color:#F22A82"/>
			<stop  offset="1" style="stop-color:#F9237F"/>
		</linearGradient>
		<path class="st1" d="M162,91.7c0.4,18.1-6.9,25.2-6.9,25.2s18-5.8,17.6-26.3c-0.4-20.6-24.6-25.9-24.6-25.9S161.7,73.6,162,91.7z"
			/>
	</g>
	<g>
		
			<linearGradient id="SVGID_3_" gradientUnits="userSpaceOnUse" x1="-1012.1879" y1="1004.261" x2="798.24" y2="-454.5956" gradientTransform="matrix(1 0 0 -1 0 250)">
			<stop  offset="0" style="stop-color:#FA247C"/>
			<stop  offset="2.382660e-02" style="stop-color:#FA3077"/>
			<stop  offset="6.677425e-02" style="stop-color:#F94F6B"/>
			<stop  offset="0.1239" style="stop-color:#F88357"/>
			<stop  offset="0.1923" style="stop-color:#F6C83C"/>
			<stop  offset="0.2282" style="stop-color:#F5F02D"/>
			<stop  offset="0.2541" style="stop-color:#F5E932"/>
			<stop  offset="0.2915" style="stop-color:#F6D63F"/>
			<stop  offset="0.3358" style="stop-color:#F8B754"/>
			<stop  offset="0.3851" style="stop-color:#FA8B71"/>
			<stop  offset="0.4107" style="stop-color:#FB7282"/>
			<stop  offset="0.5496" style="stop-color:#AE20F2"/>
			<stop  offset="0.7282" style="stop-color:#60C0D2"/>
			<stop  offset="0.748" style="stop-color:#77B1BE"/>
			<stop  offset="0.7965" style="stop-color:#9A8BAD"/>
			<stop  offset="0.861" style="stop-color:#C35E99"/>
			<stop  offset="0.9188" style="stop-color:#E03E8B"/>
			<stop  offset="0.9671" style="stop-color:#F22A82"/>
			<stop  offset="1" style="stop-color:#F9237F"/>
		</linearGradient>
		<path class="st2" d="M67.1,63.4c0,0,15.2,3.9,15.2,26.5v68.1c0,26.7-15.2,28.2-15.2,28.2v2.2l24.8-1.2V62.6l-24.8-1.2V63.4z"/>
	</g>
	<g>
		
			<linearGradient id="SVGID_4_" gradientUnits="userSpaceOnUse" x1="-996.7479" y1="1023.4219" x2="813.68" y2="-435.4346" gradientTransform="matrix(1 0 0 -1 0 250)">
			<stop  offset="0" style="stop-color:#FA247C"/>
			<stop  offset="2.382660e-02" style="stop-color:#FA3077"/>
			<stop  offset="6.677425e-02" style="stop-color:#F94F6B"/>
			<stop  offset="0.1239" style="stop-color:#F88357"/>
			<stop  offset="0.1923" style="stop-color:#F6C83C"/>
			<stop  offset="0.2282" style="stop-color:#F5F02D"/>
			<stop  offset="0.2541" style="stop-color:#F5E932"/>
			<stop  offset="0.2915" style="stop-color:#F6D63F"/>
			<stop  offset="0.3358" style="stop-color:#F8B754"/>
			<stop  offset="0.3851" style="stop-color:#FA8B71"/>
			<stop  offset="0.4107" style="stop-color:#FB7282"/>
			<stop  offset="0.5496" style="stop-color:#AE20F2"/>
			<stop  offset="0.7282" style="stop-color:#60C0D2"/>
			<stop  offset="0.748" style="stop-color:#77B1BE"/>
			<stop  offset="0.7965" style="stop-color:#9A8BAD"/>
			<stop  offset="0.861" style="stop-color:#C35E99"/>
			<stop  offset="0.9188" style="stop-color:#E03E8B"/>
			<stop  offset="0.9671" style="stop-color:#F22A82"/>
			<stop  offset="1" style="stop-color:#F9237F"/>
		</linearGradient>
		<path class="st3" d="M162.2,160.9c3.1-20.1-4.8-29.4-8.9-32.8s-15.6-7.3-15.6-7.3s7.6-3.9,11.2-9.4s6.2-15.6,3.6-26.3
			c-2.6-10.6-11.9-21.3-22.8-22.8c-10.9-1.5-15.5,0.2-28.7,0.5v124.4c0,0,20,1.5,30.8,1.4l0,0C142.5,188.5,159.1,181.1,162.2,160.9z
			 M112.2,73.1c2-1.9,12.1-5.2,21.6,1.4c9.6,6.6,12.1,26.1,4.1,36.3c-8,10.3-27.8,7.6-27.8,7.6S110.2,75,112.2,73.1z M151.7,161.5
			c-4.6,17.8-18.6,18.2-25.9,18s-14.3-0.1-15.2-20.8c-0.8-20.6-0.5-31.6-0.5-31.6s21.8-0.8,29.2,2.4l0,0
			C146.9,132.8,156.3,143.7,151.7,161.5z"/>
	</g>
	<g>
		
			<linearGradient id="SVGID_5_" gradientUnits="userSpaceOnUse" x1="-993.4123" y1="1027.5615" x2="817.0156" y2="-431.2952" gradientTransform="matrix(1 0 0 -1 0 250)">
			<stop  offset="0" style="stop-color:#FA247C"/>
			<stop  offset="2.382660e-02" style="stop-color:#FA3077"/>
			<stop  offset="6.677425e-02" style="stop-color:#F94F6B"/>
			<stop  offset="0.1239" style="stop-color:#F88357"/>
			<stop  offset="0.1923" style="stop-color:#F6C83C"/>
			<stop  offset="0.2282" style="stop-color:#F5F02D"/>
			<stop  offset="0.2541" style="stop-color:#F5E932"/>
			<stop  offset="0.2915" style="stop-color:#F6D63F"/>
			<stop  offset="0.3358" style="stop-color:#F8B754"/>
			<stop  offset="0.3851" style="stop-color:#FA8B71"/>
			<stop  offset="0.4107" style="stop-color:#FB7282"/>
			<stop  offset="0.5496" style="stop-color:#AE20F2"/>
			<stop  offset="0.7282" style="stop-color:#60C0D2"/>
			<stop  offset="0.748" style="stop-color:#77B1BE"/>
			<stop  offset="0.7965" style="stop-color:#9A8BAD"/>
			<stop  offset="0.861" style="stop-color:#C35E99"/>
			<stop  offset="0.9188" style="stop-color:#E03E8B"/>
			<stop  offset="0.9671" style="stop-color:#F22A82"/>
			<stop  offset="1" style="stop-color:#F9237F"/>
		</linearGradient>
		<path class="st4" d="M182.9,153.3c-0.2-24.2-22.5-29.6-22.5-29.6s10.7,9.5,11.3,29.9c0.5,20.3-11.3,30.3-11.3,30.3
			S183.1,177.6,182.9,153.3z"/>
	</g>
</g>
<title>bcn</title>
</svg>
