<?xml version="1.0" encoding="utf-8"?>
<!-- Generator: Adobe Illustrator 21.1.0, SVG Export Plug-In . SVG Version: 6.00 Build 0)  -->
<svg version="1.1" id="Слой_1" xmlns="http://www.w3.org/2000/svg" xmlns:xlink="http://www.w3.org/1999/xlink" x="0px" y="0px"
	 viewBox="0 0 250 250" style="enable-background:new 0 0 250 250;" xml:space="preserve">
<style type="text/css">
	.st0{fill:url(#SVGID_1_);}
	.st1{fill:url(#SVGID_2_);}
</style>
<g>
	
		<linearGradient id="SVGID_1_" gradientUnits="userSpaceOnUse" x1="-837.1682" y1="900.3225" x2="973.2596" y2="-558.5341" gradientTransform="matrix(1 0 0 -1 0 250)">
		<stop  offset="0" style="stop-color:#FA247C"/>
		<stop  offset="2.382660e-02" style="stop-color:#FA3077"/>
		<stop  offset="6.677425e-02" style="stop-color:#F94F6B"/>
		<stop  offset="0.1239" style="stop-color:#F88357"/>
		<stop  offset="0.1923" style="stop-color:#F6C83C"/>
		<stop  offset="0.2282" style="stop-color:#F5F02D"/>
		<stop  offset="0.2541" style="stop-color:#F5E932"/>
		<stop  offset="0.2915" style="stop-color:#F6D63F"/>
		<stop  offset="0.3358" style="stop-color:#F8B754"/>
		<stop  offset="0.3851" style="stop-color:#FA8B71"/>
		<stop  offset="0.4107" style="stop-color:#FB7282"/>
		<stop  offset="0.5496" style="stop-color:#AE20F2"/>
		<stop  offset="0.7282" style="stop-color:#60C0D2"/>
		<stop  offset="0.748" style="stop-color:#77B1BE"/>
		<stop  offset="0.7965" style="stop-color:#9A8BAD"/>
		<stop  offset="0.861" style="stop-color:#C35E99"/>
		<stop  offset="0.9188" style="stop-color:#E03E8B"/>
		<stop  offset="0.9671" style="stop-color:#F22A82"/>
		<stop  offset="1" style="stop-color:#F9237F"/>
	</linearGradient>
	<path class="st0" d="M125,250C56.1,250,0,193.9,0,125S56.1,0,125,0s125,56.1,125,125S193.9,250,125,250z M125,11.2
		c-62.7,0-113.7,51-113.7,113.7s51,113.7,113.7,113.7s113.7-51,113.7-113.7S187.7,11.2,125,11.2z"/>
</g>
<g>
	
		<linearGradient id="SVGID_2_" gradientUnits="userSpaceOnUse" x1="-837.3152" y1="900.1403" x2="973.1128" y2="-558.7164" gradientTransform="matrix(1 0 0 -1 0 250)">
		<stop  offset="0" style="stop-color:#FA247C"/>
		<stop  offset="2.382660e-02" style="stop-color:#FA3077"/>
		<stop  offset="6.677425e-02" style="stop-color:#F94F6B"/>
		<stop  offset="0.1239" style="stop-color:#F88357"/>
		<stop  offset="0.1923" style="stop-color:#F6C83C"/>
		<stop  offset="0.2282" style="stop-color:#F5F02D"/>
		<stop  offset="0.2541" style="stop-color:#F5E932"/>
		<stop  offset="0.2915" style="stop-color:#F6D63F"/>
		<stop  offset="0.3358" style="stop-color:#F8B754"/>
		<stop  offset="0.3851" style="stop-color:#FA8B71"/>
		<stop  offset="0.4107" style="stop-color:#FB7282"/>
		<stop  offset="0.5496" style="stop-color:#AE20F2"/>
		<stop  offset="0.7282" style="stop-color:#60C0D2"/>
		<stop  offset="0.748" style="stop-color:#77B1BE"/>
		<stop  offset="0.7965" style="stop-color:#9A8BAD"/>
		<stop  offset="0.861" style="stop-color:#C35E99"/>
		<stop  offset="0.9188" style="stop-color:#E03E8B"/>
		<stop  offset="0.9671" style="stop-color:#F22A82"/>
		<stop  offset="1" style="stop-color:#F9237F"/>
	</linearGradient>
	<path class="st1" d="M146.5,196.8l-19-0.1l-0.1-20.7l-4.6-0.1v20.8H103v-20.9l-25.9,0.4v-21.3h15.4c1.5,0,1.8-1.1,1.8-3.1
		c0-2,0-50.1,0-53.4c0-3.8-1.1-4.7-5.3-4.7c-4.7,0-12,0-12,0V73.8l25.9,0.1V53h19.6v20.8h4.6V53h19.2v20.8c0.1,0,0.6,0,0.9,0
		c17.2,0,30.6,10.1,30.6,25.3c0,11.8-4.7,15.6-9.2,19c4.5,1.9,14.2,8,14.2,26.8c0,30.3-32.9,30.9-36.7,30.9L146.5,196.8z
		 M133.2,190.9h7.4v-21.3c0,0,5.2,0.1,5.9,0.1c25.6,0,30.8-16,30.8-25c0-23.2-18.8-25.6-18.8-25.6s13.6-5.1,13.6-19.6
		c0-9.3-7.1-19.8-30.1-19.8c-0.5,0-1.4,0-1.4,0V58.7l-7.4,0.2l-0.1,20.7l-16-0.1V58.8h-8.2v20.8l-25.6,0.1v8c1.6-0.1,3.8-0.1,6.1,0
		c4.6,0.1,10.8,1.3,11.1,10.5c0.1,3.2,0,51.5,0,53.2c0,2.2,0.2,5.3-1.5,7.3c-1.6,1.8-3.3,2.1-6.1,2.1c-2.5,0-7.9,0-9.5,0v9.3
		l25.6-0.4v21h8.2v-21h16L133.2,190.9z M139.1,160.7c-4.9,0-18.5,0-19-0.1h-2.9l-0.2-34.5h2.9c0.6,0,8.6,0,16,0
		c9.3,0,22.8,2.7,22.8,17.4C158.7,150.3,155.3,160.7,139.1,160.7z M122.9,154.8c4,0,11.4,0,14.6,0c8.5,0,15.5-3.4,15.5-11.5
		c0-6.8-5.5-11.1-16.3-11.1c-4.9,0-9.2,0-13.8,0L122.9,154.8L122.9,154.8z M136.6,118.5c-7.4,0-19.4,0-19.4,0V87.6
		c0,0,16.2,0,20.9,0c8.1,0,14.5,5.4,14.5,15.5C152.6,112.8,147.7,118.5,136.6,118.5z M123.7,113c1.2,0,7.8,0,12.2,0
		c7.3,0,10.7-4.2,10.7-9.8c0-4.9-3.2-9.6-12.9-9.6c-4.2,0-8.6,0.2-10.2,0.2L123.7,113z"/>
</g>
<title>bcn</title>
</svg>
