<?xml version="1.0" encoding="utf-8"?>
<!-- Generator: Adobe Illustrator 21.1.0, SVG Export Plug-In . SVG Version: 6.00 Build 0)  -->
<svg version="1.1" id="Слой_1" xmlns="http://www.w3.org/2000/svg" xmlns:xlink="http://www.w3.org/1999/xlink" x="0px" y="0px"
	 viewBox="0 0 250 250" style="enable-background:new 0 0 250 250;" xml:space="preserve">
<style type="text/css">
	.st0{fill:url(#SVGID_1_);}
	.st1{fill:url(#SVGID_2_);}
	.st2{fill:url(#SVGID_3_);}
	.st3{fill:url(#SVGID_4_);}
</style>
<linearGradient id="SVGID_1_" gradientUnits="userSpaceOnUse" x1="-1383.4303" y1="1340.5045" x2="426.9971" y2="-118.3516" gradientTransform="matrix(1 0 0 -1 0 250)">
	<stop  offset="0" style="stop-color:#FA247C"/>
	<stop  offset="2.382660e-02" style="stop-color:#FA3077"/>
	<stop  offset="6.677425e-02" style="stop-color:#F94F6B"/>
	<stop  offset="0.1239" style="stop-color:#F88357"/>
	<stop  offset="0.1923" style="stop-color:#F6C83C"/>
	<stop  offset="0.2282" style="stop-color:#F5F02D"/>
	<stop  offset="0.2541" style="stop-color:#F5E932"/>
	<stop  offset="0.2915" style="stop-color:#F6D63F"/>
	<stop  offset="0.3358" style="stop-color:#F8B754"/>
	<stop  offset="0.3851" style="stop-color:#FA8B71"/>
	<stop  offset="0.4107" style="stop-color:#FB7282"/>
	<stop  offset="0.5496" style="stop-color:#AE20F2"/>
	<stop  offset="0.7282" style="stop-color:#60C0D2"/>
	<stop  offset="0.748" style="stop-color:#77B1BE"/>
	<stop  offset="0.7965" style="stop-color:#9A8BAD"/>
	<stop  offset="0.861" style="stop-color:#C35E99"/>
	<stop  offset="0.9188" style="stop-color:#E03E8B"/>
	<stop  offset="0.9671" style="stop-color:#F22A82"/>
	<stop  offset="1" style="stop-color:#F9237F"/>
</linearGradient>
<path class="st0" d="M125,250C56.1,250,0,193.9,0,125S56.1,0,125,0s125,56.1,125,125S193.9,250,125,250z M125,11.2
	c-62.7,0-113.7,51-113.7,113.7s51,113.7,113.7,113.7s113.7-51,113.7-113.7S187.7,11.2,125,11.2z"/>
<g>
	
		<linearGradient id="SVGID_2_" gradientUnits="userSpaceOnUse" x1="-1383.3754" y1="1340.5725" x2="427.0519" y2="-118.2837" gradientTransform="matrix(1 0 0 -1 0 250)">
		<stop  offset="0" style="stop-color:#FA247C"/>
		<stop  offset="2.382660e-02" style="stop-color:#FA3077"/>
		<stop  offset="6.677425e-02" style="stop-color:#F94F6B"/>
		<stop  offset="0.1239" style="stop-color:#F88357"/>
		<stop  offset="0.1923" style="stop-color:#F6C83C"/>
		<stop  offset="0.2282" style="stop-color:#F5F02D"/>
		<stop  offset="0.2541" style="stop-color:#F5E932"/>
		<stop  offset="0.2915" style="stop-color:#F6D63F"/>
		<stop  offset="0.3358" style="stop-color:#F8B754"/>
		<stop  offset="0.3851" style="stop-color:#FA8B71"/>
		<stop  offset="0.4107" style="stop-color:#FB7282"/>
		<stop  offset="0.5496" style="stop-color:#AE20F2"/>
		<stop  offset="0.7282" style="stop-color:#60C0D2"/>
		<stop  offset="0.748" style="stop-color:#77B1BE"/>
		<stop  offset="0.7965" style="stop-color:#9A8BAD"/>
		<stop  offset="0.861" style="stop-color:#C35E99"/>
		<stop  offset="0.9188" style="stop-color:#E03E8B"/>
		<stop  offset="0.9671" style="stop-color:#F22A82"/>
		<stop  offset="1" style="stop-color:#F9237F"/>
	</linearGradient>
	<path class="st1" d="M119.9,29.4h10c10.3,0.7,20.7,2.7,30.3,6.7c23.9,9.4,43.5,28.8,53.2,52.7c13.3,31.6,7.5,70.3-14.6,96.7
		c-14.9,18.3-36.9,30.8-60.4,34c-22,3.2-45.2-1.6-64-13.5c-14.6-9.1-26.6-22.1-34.3-37.3c-10-19.2-13.1-41.7-8.6-62.9
		c4.7-23.4,18.7-44.8,38.2-58.6C84.3,36.5,102,30.5,119.9,29.4 M114.1,33.6C85,36.9,58.3,55.3,44.4,81
		c-9.4,17.1-13.1,37.3-10.2,56.6c3.2,23.3,15.9,45,34.3,59.4c14.1,11.2,31.5,18,49.4,19.3c20.2,1.6,41-3.8,57.9-15.2
		c20.7-13.6,35.3-36,39.5-60.4c2.5-14.3,1.6-29.4-2.8-43.3c-6.3-20.2-20-38.1-37.7-49.5C157,36.1,135.1,31,114.1,33.6L114.1,33.6z"
		/>
	
		<linearGradient id="SVGID_3_" gradientUnits="userSpaceOnUse" x1="-1383.3147" y1="1340.6478" x2="427.1127" y2="-118.2083" gradientTransform="matrix(1 0 0 -1 0 250)">
		<stop  offset="0" style="stop-color:#FA247C"/>
		<stop  offset="2.382660e-02" style="stop-color:#FA3077"/>
		<stop  offset="6.677425e-02" style="stop-color:#F94F6B"/>
		<stop  offset="0.1239" style="stop-color:#F88357"/>
		<stop  offset="0.1923" style="stop-color:#F6C83C"/>
		<stop  offset="0.2282" style="stop-color:#F5F02D"/>
		<stop  offset="0.2541" style="stop-color:#F5E932"/>
		<stop  offset="0.2915" style="stop-color:#F6D63F"/>
		<stop  offset="0.3358" style="stop-color:#F8B754"/>
		<stop  offset="0.3851" style="stop-color:#FA8B71"/>
		<stop  offset="0.4107" style="stop-color:#FB7282"/>
		<stop  offset="0.5496" style="stop-color:#AE20F2"/>
		<stop  offset="0.7282" style="stop-color:#60C0D2"/>
		<stop  offset="0.748" style="stop-color:#77B1BE"/>
		<stop  offset="0.7965" style="stop-color:#9A8BAD"/>
		<stop  offset="0.861" style="stop-color:#C35E99"/>
		<stop  offset="0.9188" style="stop-color:#E03E8B"/>
		<stop  offset="0.9671" style="stop-color:#F22A82"/>
		<stop  offset="1" style="stop-color:#F9237F"/>
	</linearGradient>
	<path class="st2" d="M116.3,71.3c16.6-2.8,34.5,2.7,46.3,14.6c10.6,10,16.8,24.6,16.5,39.2c0.2,14.5-6,28.9-16.6,38.8
		c-11.5,11.4-28.3,16.8-44.3,14.7c-15.1-1.8-29.2-10.3-37.7-22.9c-9.5-13.4-12.1-31.3-7.2-47C79,89.4,96.4,74.3,116.3,71.3
		 M119.6,74.6c0,4.7,0,9.5,0,14.2c2.4,0,4.7,0,7.1,0c0-4.8,0-9.8,0-14.6C124.4,74.3,121.9,74.4,119.6,74.6 M136.6,89
		c6.2,0.8,12.9,1.8,17.9,6c7.6,6.8,6.6,21.2-2.7,26.1c5.5,1.3,11.1,5.1,12.5,10.8c1.8,7.6,0.4,16.8-5.8,22.2
		c-6.1,5.1-14.3,5.6-21.9,6.3c0,4.5,0,8.8,0,13.3c15.9-3.9,29.5-15.8,35.4-31c5.5-14.1,4.2-30.7-3.5-43.7
		c-6.9-11.8-18.6-20.3-31.7-23.6C136.6,80.1,136.6,84.5,136.6,89 M89.4,88.8c6.8,0.4,13.8,0.2,20.6,0.2c0-4.2,0-8.3,0-12.6
		C102.2,79,95.4,83.5,89.4,88.8 M88.7,89.5c-2.9,2.8-5.4,6.3-7.4,10.1c-8.1,13.8-9.1,31.4-2.2,46c5.9,12.9,17.4,23,30.9,27.4
		c0-4.2,0-8.3,0-12.6c-6.9-0.1-13.9,0.2-20.7-0.2c0.1-3.9,0.9-7.6,2.2-11.3c3.4-0.1,6.9,0.5,10.1-0.6c1.9-1.6,1.4-4.2,1.4-6.5
		c-0.1-12.6,0-25-0.1-37.6c0.1-2-1.2-4.2-3.3-4.6c-3.5-0.7-7.1-0.5-10.6-0.5L88.7,89.5z M119.9,100.2v18.5
		c6.2-0.1,13.1,0.6,18.5-3.1c4.5-2.9,4.2-10.3-0.5-13.1C132.5,99.5,125.9,100.3,119.9,100.2 M119.9,128.6v20.6
		c7.6-0.6,16.2,0.7,22.8-3.9c4.7-3.2,4.2-10.9-0.7-13.6C135.3,127.6,127.4,128.9,119.9,128.6 M119.6,160.7c0,4.7,0,9.5,0,14.2
		c2.5,0.1,4.9,0.2,7.4,0.4c0-4.8,0-9.8,0-14.6L119.6,160.7L119.6,160.7z"/>
</g>
<linearGradient id="SVGID_4_" gradientUnits="userSpaceOnUse" x1="-1383.3447" y1="1340.6107" x2="427.0827" y2="-118.2456" gradientTransform="matrix(1 0 0 -1 0 250)">
	<stop  offset="0" style="stop-color:#FA247C"/>
	<stop  offset="2.382660e-02" style="stop-color:#FA3077"/>
	<stop  offset="6.677425e-02" style="stop-color:#F94F6B"/>
	<stop  offset="0.1239" style="stop-color:#F88357"/>
	<stop  offset="0.1923" style="stop-color:#F6C83C"/>
	<stop  offset="0.2282" style="stop-color:#F5F02D"/>
	<stop  offset="0.2541" style="stop-color:#F5E932"/>
	<stop  offset="0.2915" style="stop-color:#F6D63F"/>
	<stop  offset="0.3358" style="stop-color:#F8B754"/>
	<stop  offset="0.3851" style="stop-color:#FA8B71"/>
	<stop  offset="0.4107" style="stop-color:#FB7282"/>
	<stop  offset="0.5496" style="stop-color:#AE20F2"/>
	<stop  offset="0.7282" style="stop-color:#60C0D2"/>
	<stop  offset="0.748" style="stop-color:#77B1BE"/>
	<stop  offset="0.7965" style="stop-color:#9A8BAD"/>
	<stop  offset="0.861" style="stop-color:#C35E99"/>
	<stop  offset="0.9188" style="stop-color:#E03E8B"/>
	<stop  offset="0.9671" style="stop-color:#F22A82"/>
	<stop  offset="1" style="stop-color:#F9237F"/>
</linearGradient>
<path class="st3" d="M114.5,38.6c16.7-1.8,34,0.7,49,8.5c19.3,9.5,34.8,26.6,42.5,46.7c7.8,20.1,7.6,43.3-0.5,63.3
	c-12.2,31.6-44.6,54.3-78.6,54.4c-20,0.7-40.1-6-55.7-18.5C54.6,180,43,160.6,39.5,139.8C35.9,119.1,40,97.2,51,79.4
	C64.4,57,88.7,41.6,114.5,38.6 M111.6,66.7c-13.6,3.1-26,11.1-34.3,22.2c-9.2,12.1-13.4,27.9-11.5,42.9
	c1.8,16.1,10.6,31.4,23.6,40.9c12.2,9.2,28.2,13.3,43.4,11.2c18.8-2.2,36-14.2,44.8-30.9c6.6-12,8.3-26.1,6-39.5
	c-3.1-16.1-13.2-30.8-27.2-39.4C143.1,65.9,126.8,63.1,111.6,66.7z"/>
<title>bcn</title>
</svg>
