<?xml version="1.0" encoding="utf-8"?>
<!-- Generator: Adobe Illustrator 21.1.0, SVG Export Plug-In . SVG Version: 6.00 Build 0)  -->
<svg version="1.1" id="Слой_1" xmlns="http://www.w3.org/2000/svg" xmlns:xlink="http://www.w3.org/1999/xlink" x="0px" y="0px"
	 viewBox="0 0 250 250" style="enable-background:new 0 0 250 250;" xml:space="preserve">
<style type="text/css">
	.st0{fill:url(#SVGID_1_);}
	.st1{fill:url(#SVGID_2_);}
</style>
<linearGradient id="SVGID_1_" gradientUnits="userSpaceOnUse" x1="-366.1499" y1="520.725" x2="1443.4266" y2="-937.4456" gradientTransform="matrix(1 0 0 -1 0 250)">
	<stop  offset="0" style="stop-color:#FA247C"/>
	<stop  offset="2.382660e-02" style="stop-color:#FA3077"/>
	<stop  offset="6.677425e-02" style="stop-color:#F94F6B"/>
	<stop  offset="0.1239" style="stop-color:#F88357"/>
	<stop  offset="0.1923" style="stop-color:#F6C83C"/>
	<stop  offset="0.2282" style="stop-color:#F5F02D"/>
	<stop  offset="0.2541" style="stop-color:#F5E932"/>
	<stop  offset="0.2915" style="stop-color:#F6D63F"/>
	<stop  offset="0.3358" style="stop-color:#F8B754"/>
	<stop  offset="0.3851" style="stop-color:#FA8B71"/>
	<stop  offset="0.4107" style="stop-color:#FB7282"/>
	<stop  offset="0.5496" style="stop-color:#AE20F2"/>
	<stop  offset="0.7282" style="stop-color:#60C0D2"/>
	<stop  offset="0.748" style="stop-color:#77B1BE"/>
	<stop  offset="0.7965" style="stop-color:#9A8BAD"/>
	<stop  offset="0.861" style="stop-color:#C35E99"/>
	<stop  offset="0.9188" style="stop-color:#E03E8B"/>
	<stop  offset="0.9671" style="stop-color:#F22A82"/>
	<stop  offset="1" style="stop-color:#F9237F"/>
</linearGradient>
<path class="st0" d="M124.9,250C56.1,250,0,193.9,0,125.1S56.1,0,124.9,0s124.9,56.1,124.9,124.9S193.9,250,124.9,250z M124.9,11.3
	c-62.6,0-113.7,51-113.7,113.7s51,113.7,113.7,113.7s113.7-51,113.7-113.7S187.7,11.3,124.9,11.3z"/>
<linearGradient id="SVGID_2_" gradientUnits="userSpaceOnUse" x1="-363.1613" y1="524.4338" x2="1446.4152" y2="-933.7368" gradientTransform="matrix(1 0 0 -1 0 250)">
	<stop  offset="0" style="stop-color:#FA247C"/>
	<stop  offset="2.382660e-02" style="stop-color:#FA3077"/>
	<stop  offset="6.677425e-02" style="stop-color:#F94F6B"/>
	<stop  offset="0.1239" style="stop-color:#F88357"/>
	<stop  offset="0.1923" style="stop-color:#F6C83C"/>
	<stop  offset="0.2282" style="stop-color:#F5F02D"/>
	<stop  offset="0.2541" style="stop-color:#F5E932"/>
	<stop  offset="0.2915" style="stop-color:#F6D63F"/>
	<stop  offset="0.3358" style="stop-color:#F8B754"/>
	<stop  offset="0.3851" style="stop-color:#FA8B71"/>
	<stop  offset="0.4107" style="stop-color:#FB7282"/>
	<stop  offset="0.5496" style="stop-color:#AE20F2"/>
	<stop  offset="0.7282" style="stop-color:#60C0D2"/>
	<stop  offset="0.748" style="stop-color:#77B1BE"/>
	<stop  offset="0.7965" style="stop-color:#9A8BAD"/>
	<stop  offset="0.861" style="stop-color:#C35E99"/>
	<stop  offset="0.9188" style="stop-color:#E03E8B"/>
	<stop  offset="0.9671" style="stop-color:#F22A82"/>
	<stop  offset="1" style="stop-color:#F9237F"/>
</linearGradient>
<path class="st1" d="M197.9,109.5l-0.2-0.1c1.4-6-1.1-12.3-4.7-15.2c-0.1,0-5.6-4.2-8.9-4.7c-0.2-3.5-3.8-10.7-9.1-14.9
	c-4.3-3.5-10.3-4-13.4-3.4c-1.5-4.2-6.1-9.5-12.3-11.5c-4.5-1.5-8.3-0.7-10.7,0.5c-2.4-2.9-8.6-6.8-14.9-6.8
	c-6.2,0.1-12.6,4.5-15,7.9c-2.2-1.2-6.3-2-10.9-0.4c-6.1,2.2-10.6,7.6-12,11.9c-3.2-0.5-9.1,0.2-13.3,3.9
	c-5.2,4.3-8.3,11.6-8.6,15.2c-3.3,0.5-8.7,4.9-8.7,4.9c-3.5,2.9-5.9,9.3-4.2,15.3l-0.2,0.1c-3.4,2.1-9.2,8.1-6.3,16.1
	c3.8,10.9,26.1,30.9,30.6,34.8c11.8,10.2,44.4,33.3,50.8,33.3c6.7,0,20.7-10.8,20.7-10.8s17.4-13.9,28.8-24.4
	c4.3-4,26.1-24.7,29.5-35.7C207.2,117.4,201.3,111.5,197.9,109.5z M189.7,98.5c2.2,1.8,4.1,6.8,2.4,11.2
	c-2.5,6.1-8.9,16.3-19.5,31.3c-8.8,12.6-21.4,24.9-27.2,30.3c3.9-5.4,11.3-15.9,18.5-27.5c7.5-12.5,15.4-32.9,19.6-44
	c0.6-1.5,1.2-3.1,1.6-4.2C186.4,96.3,188.1,97.2,189.7,98.5z M164.1,76.4c1.9,0,5.2,0.5,7.8,2.5c4.6,3.6,7.1,9.9,7.1,11.2
	c0,0.7-0.7,5.5-14,34.9c-6.9,15.4-16.9,30.2-22.9,38.6c3.2-6.7,7.8-17.9,13.4-35.1C163.6,102.8,164.3,84.7,164.1,76.4L164.1,76.4z
	 M141.4,64.8c0.9-0.5,3.3-0.9,6.2,0c4.6,1.5,8.3,5.6,9.2,8.6c0.8,2.8,0.4,25.3-7.2,48.8c-5.6,17.5-13.8,35.7-17.2,43.3
	c1.3-8.6,4-26.9,5.4-41.4c1.5-16.3,3.1-47,3.5-57C141.4,66.1,141.4,65.4,141.4,64.8z M123.8,58.8C123.9,58.8,123.9,58.8,123.8,58.8
	c4.9,0,9.8,3.6,10.6,4.6c0.2,3.9-0.9,30.8-2.7,52c-1.5,18.1-5.3,43.7-6.6,51.6c-0.2,0-0.4,0-0.6,0c-1.3-8.6-5.6-37.7-6.9-49.1
	c-1.5-14.3-4.7-48.8-4.6-53.2C113.9,63,118.9,58.8,123.8,58.8z M90.7,74.9c0.7-2.9,4.3-7.2,8.9-8.8c1.3-0.5,2.5-0.7,3.5-0.7
	c1.2,0,2.1,0.2,2.7,0.5c0,0.6,0.1,1.3,0.1,2.1c0.8,10,3.2,40.6,5.2,57c1.8,14.5,5.1,32.7,6.6,41.1c-3.6-7.4-12.3-25.4-18.5-42.7
	C91.1,100.1,90,77.7,90.7,74.9z M75.9,80.7c2.5-2.1,5.8-2.7,7.6-2.7c0,8.2,1.2,26.4,10.3,51.8c6.1,17,11.2,28.1,14.5,34.7
	c-6.2-8.2-16.7-22.7-24.1-37.8c-14.2-29-15-33.9-15-34.6C69.2,90.7,71.6,84.5,75.9,80.7z M58.7,100.8c1.5-1.3,3.2-2.4,4.5-3.1
	c0.5,1.2,1.1,2.6,1.8,4.1c4.6,10.9,13,31.1,20.9,43.4c7.4,11.5,15.2,21.7,19.3,27c-5.9-5.3-18.8-17.3-28-29.6
	C66.1,128,59.4,118,56.7,112C54.7,107.8,56.5,102.7,58.7,100.8z M78.5,159.1c-12.7-11.2-26.7-25.5-29-32.6c-1.2-3.6,0.5-6.3,2-8
	c3.8,6.1,13.3,21.2,22.9,33c6.2,7.6,13.6,14.9,19.4,20.2C89,168.1,83.5,163.5,78.5,159.1z M125.6,191.1c-3.2,0-10.7-5.3-16-9.8
	c1.6-2.6,6-7.4,16-7.4c10.1,0,15,5.1,16.9,7.8C137.5,185.8,129.6,191.1,125.6,191.1z M199.7,123.9c-2.2,7.1-15.6,21.9-28.1,33.4
	c-4.8,4.6-10.3,9.2-14.9,13c5.6-5.5,12.7-12.9,18.7-20.8c9.3-12.1,18.5-27.5,22-33.6C199,117.5,200.8,120.4,199.7,123.9z"/>
<title>bcn</title>
</svg>
