<?xml version="1.0" encoding="utf-8"?>
<!-- Generator: Adobe Illustrator 21.1.0, SVG Export Plug-In . SVG Version: 6.00 Build 0)  -->
<svg version="1.1" id="Слой_1" xmlns="http://www.w3.org/2000/svg" xmlns:xlink="http://www.w3.org/1999/xlink" x="0px" y="0px"
	 viewBox="0 0 250 250" style="enable-background:new 0 0 250 250;" xml:space="preserve">
<style type="text/css">
	.st0{fill:url(#SVGID_1_);}
	.st1{fill:url(#SVGID_2_);}
	.st2{fill:url(#SVGID_3_);}
</style>
<linearGradient id="SVGID_1_" gradientUnits="userSpaceOnUse" x1="-604.6998" y1="713.0175" x2="1205.728" y2="-745.8391" gradientTransform="matrix(1 0 0 -1 0 250)">
	<stop  offset="0" style="stop-color:#FA247C"/>
	<stop  offset="2.382660e-02" style="stop-color:#FA3077"/>
	<stop  offset="6.677425e-02" style="stop-color:#F94F6B"/>
	<stop  offset="0.1239" style="stop-color:#F88357"/>
	<stop  offset="0.1923" style="stop-color:#F6C83C"/>
	<stop  offset="0.2282" style="stop-color:#F5F02D"/>
	<stop  offset="0.2541" style="stop-color:#F5E932"/>
	<stop  offset="0.2915" style="stop-color:#F6D63F"/>
	<stop  offset="0.3358" style="stop-color:#F8B754"/>
	<stop  offset="0.3851" style="stop-color:#FA8B71"/>
	<stop  offset="0.4107" style="stop-color:#FB7282"/>
	<stop  offset="0.5496" style="stop-color:#AE20F2"/>
	<stop  offset="0.7282" style="stop-color:#60C0D2"/>
	<stop  offset="0.748" style="stop-color:#77B1BE"/>
	<stop  offset="0.7965" style="stop-color:#9A8BAD"/>
	<stop  offset="0.861" style="stop-color:#C35E99"/>
	<stop  offset="0.9188" style="stop-color:#E03E8B"/>
	<stop  offset="0.9671" style="stop-color:#F22A82"/>
	<stop  offset="1" style="stop-color:#F9237F"/>
</linearGradient>
<path class="st0" d="M125,250C56.1,250,0,193.9,0,125S56,0,125,0s125,56.1,125,125S193.9,250,125,250z M125,11.3
	c-62.7,0-113.7,51-113.7,113.7s51,113.7,113.7,113.7s113.7-51,113.7-113.7S187.7,11.3,125,11.3z"/>
<g>
	<g>
		
			<linearGradient id="SVGID_2_" gradientUnits="userSpaceOnUse" x1="-606.7708" y1="710.4474" x2="1203.6571" y2="-748.4091" gradientTransform="matrix(1 0 0 -1 0 250)">
			<stop  offset="0" style="stop-color:#FA247C"/>
			<stop  offset="2.382660e-02" style="stop-color:#FA3077"/>
			<stop  offset="6.677425e-02" style="stop-color:#F94F6B"/>
			<stop  offset="0.1239" style="stop-color:#F88357"/>
			<stop  offset="0.1923" style="stop-color:#F6C83C"/>
			<stop  offset="0.2282" style="stop-color:#F5F02D"/>
			<stop  offset="0.2541" style="stop-color:#F5E932"/>
			<stop  offset="0.2915" style="stop-color:#F6D63F"/>
			<stop  offset="0.3358" style="stop-color:#F8B754"/>
			<stop  offset="0.3851" style="stop-color:#FA8B71"/>
			<stop  offset="0.4107" style="stop-color:#FB7282"/>
			<stop  offset="0.5496" style="stop-color:#AE20F2"/>
			<stop  offset="0.7282" style="stop-color:#60C0D2"/>
			<stop  offset="0.748" style="stop-color:#77B1BE"/>
			<stop  offset="0.7965" style="stop-color:#9A8BAD"/>
			<stop  offset="0.861" style="stop-color:#C35E99"/>
			<stop  offset="0.9188" style="stop-color:#E03E8B"/>
			<stop  offset="0.9671" style="stop-color:#F22A82"/>
			<stop  offset="1" style="stop-color:#F9237F"/>
		</linearGradient>
		<path class="st1" d="M56.4,170.9h-5.2l9.4-28.2h87.8l11.4-35H72.1l9.4-28.2h99.6c3.1-0.1,6.2,0.6,8.9,2c3.1,1.2,5.6,3.5,7.2,6.5
			c1.4,2.2,2.2,5.2,2.5,8.2c0.5,3.4,0.1,6.9-1.3,10.2l-12.8,40.2c-1.4,3.4-2.9,6.2-4.7,8.9c-2.4,3.1-4.9,5.6-7.8,7.8
			c-2.4,1.9-4.9,3.4-7.4,4.7l-2.1,1.2c-3.1,1.2-6.3,1.8-9.6,1.9L56.4,170.9z M61.6,163.3h92.2c2.4-0.1,4.7-0.5,6.9-1.3l1.4-0.8
			c2.1-1.2,4.5-2.5,6.3-4c2.4-1.9,4.5-4,6.3-6.3c1.4-2.1,2.7-4.5,3.8-7.2l12.9-40.5c0.9-2,1.2-4.2,0.8-6.3v-0.4
			c-0.1-1.9-0.7-3.8-1.6-5.3c-0.8-1.5-2-2.6-3.4-3.2L187,88c-1.8-0.8-3.8-1.3-5.6-1.3H87L82.5,100h87.7l-16.3,50H66.1L61.6,163.3z"
			/>
		
			<linearGradient id="SVGID_3_" gradientUnits="userSpaceOnUse" x1="-621.4164" y1="692.2723" x2="1189.0116" y2="-766.5841" gradientTransform="matrix(1 0 0 -1 0 250)">
			<stop  offset="0" style="stop-color:#FA247C"/>
			<stop  offset="2.382660e-02" style="stop-color:#FA3077"/>
			<stop  offset="6.677425e-02" style="stop-color:#F94F6B"/>
			<stop  offset="0.1239" style="stop-color:#F88357"/>
			<stop  offset="0.1923" style="stop-color:#F6C83C"/>
			<stop  offset="0.2282" style="stop-color:#F5F02D"/>
			<stop  offset="0.2541" style="stop-color:#F5E932"/>
			<stop  offset="0.2915" style="stop-color:#F6D63F"/>
			<stop  offset="0.3358" style="stop-color:#F8B754"/>
			<stop  offset="0.3851" style="stop-color:#FA8B71"/>
			<stop  offset="0.4107" style="stop-color:#FB7282"/>
			<stop  offset="0.5496" style="stop-color:#AE20F2"/>
			<stop  offset="0.7282" style="stop-color:#60C0D2"/>
			<stop  offset="0.748" style="stop-color:#77B1BE"/>
			<stop  offset="0.7965" style="stop-color:#9A8BAD"/>
			<stop  offset="0.861" style="stop-color:#C35E99"/>
			<stop  offset="0.9188" style="stop-color:#E03E8B"/>
			<stop  offset="0.9671" style="stop-color:#F22A82"/>
			<stop  offset="1" style="stop-color:#F9237F"/>
		</linearGradient>
		<path class="st2" d="M108.2,138.3H48l9.6-26.7H117L108.2,138.3z M58.6,130.9h44.2l3.9-11.8H62.8L58.6,130.9z"/>
	</g>
</g>
<title>bcn</title>
</svg>
