<?xml version="1.0" encoding="utf-8"?>
<!-- Generator: Adobe Illustrator 21.1.0, SVG Export Plug-In . SVG Version: 6.00 Build 0)  -->
<svg version="1.1" id="Слой_1" xmlns="http://www.w3.org/2000/svg" xmlns:xlink="http://www.w3.org/1999/xlink" x="0px" y="0px"
	 viewBox="0 0 250 250" style="enable-background:new 0 0 250 250;" xml:space="preserve">
<style type="text/css">
	.st0{fill:url(#SVGID_1_);}
</style>
<title>bcn</title>
<linearGradient id="SVGID_1_" gradientUnits="userSpaceOnUse" x1="-1421.0094" y1="1370.821" x2="389.4168" y2="-88.0342" gradientTransform="matrix(1 0 0 -1 0 250)">
	<stop  offset="0" style="stop-color:#FA247C"/>
	<stop  offset="2.382660e-02" style="stop-color:#FA3077"/>
	<stop  offset="6.677425e-02" style="stop-color:#F94F6B"/>
	<stop  offset="0.1239" style="stop-color:#F88357"/>
	<stop  offset="0.1923" style="stop-color:#F6C83C"/>
	<stop  offset="0.2282" style="stop-color:#F5F02D"/>
	<stop  offset="0.2541" style="stop-color:#F5E932"/>
	<stop  offset="0.2915" style="stop-color:#F6D63F"/>
	<stop  offset="0.3358" style="stop-color:#F8B754"/>
	<stop  offset="0.3851" style="stop-color:#FA8B71"/>
	<stop  offset="0.4107" style="stop-color:#FB7282"/>
	<stop  offset="0.5496" style="stop-color:#AE20F2"/>
	<stop  offset="0.7282" style="stop-color:#60C0D2"/>
	<stop  offset="0.748" style="stop-color:#77B1BE"/>
	<stop  offset="0.7965" style="stop-color:#9A8BAD"/>
	<stop  offset="0.861" style="stop-color:#C35E99"/>
	<stop  offset="0.9188" style="stop-color:#E03E8B"/>
	<stop  offset="0.9671" style="stop-color:#F22A82"/>
	<stop  offset="1" style="stop-color:#F9237F"/>
</linearGradient>
<path class="st0" d="M125,0C56.1,0,0,56.1,0,125s56.1,125,125,125s125-56.1,125-125C250.1,56.1,194,0,125,0z M167.3,230.6
	c-19-35.6-32.2-71.1-39-105.5l-3.2-16l-3.3,16c-6.9,34.3-20.2,69.7-39.4,105.4c-12.9-5.2-24.6-12.7-34.7-22
	C79.5,152.3,105.5,90.1,125,23.4c19.4,66.8,45.4,129,77,185.3C192,218,180.3,225.4,167.3,230.6z M161.1,232.9
	c-11.3,3.8-23.4,5.9-36.1,5.9c-12.7,0-24.9-2.1-36.3-6c16.6-31,28.8-61.9,36.3-92.1C132.5,171,144.6,201.9,161.1,232.9z M128.4,11.5
	L128.4,11.5c61.1,1.8,110.3,52,110.3,113.6c0,30.6-12.2,58.4-31.9,78.9C174.3,145.7,147.9,81,128.4,11.5z M42.9,203.7
	c-19.6-20.5-31.7-48.2-31.7-78.7c0-61.6,49.2-111.8,110.3-113.7C102.1,80.8,75.7,145.5,42.9,203.7z"/>
</svg>
