<?xml version="1.0" encoding="utf-8"?>
<!-- Generator: Adobe Illustrator 21.1.0, SVG Export Plug-In . SVG Version: 6.00 Build 0)  -->
<svg version="1.1" id="Слой_1" xmlns="http://www.w3.org/2000/svg" xmlns:xlink="http://www.w3.org/1999/xlink" x="0px" y="0px"
	 viewBox="0 0 250 250" style="enable-background:new 0 0 250 250;" xml:space="preserve">
<style type="text/css">
	.st0{fill:url(#SVGID_1_);}
	.st1{fill:url(#SVGID_2_);}
</style>
<g>
	
		<linearGradient id="SVGID_1_" gradientUnits="userSpaceOnUse" x1="-171.7194" y1="364.0987" x2="1638.7085" y2="-1094.7578" gradientTransform="matrix(1 0 0 -1 0 250)">
		<stop  offset="0" style="stop-color:#FA247C"/>
		<stop  offset="2.382660e-02" style="stop-color:#FA3077"/>
		<stop  offset="6.677425e-02" style="stop-color:#F94F6B"/>
		<stop  offset="0.1239" style="stop-color:#F88357"/>
		<stop  offset="0.1923" style="stop-color:#F6C83C"/>
		<stop  offset="0.2282" style="stop-color:#F5F02D"/>
		<stop  offset="0.2541" style="stop-color:#F5E932"/>
		<stop  offset="0.2915" style="stop-color:#F6D63F"/>
		<stop  offset="0.3358" style="stop-color:#F8B754"/>
		<stop  offset="0.3851" style="stop-color:#FA8B71"/>
		<stop  offset="0.4107" style="stop-color:#FB7282"/>
		<stop  offset="0.5496" style="stop-color:#AE20F2"/>
		<stop  offset="0.7282" style="stop-color:#60C0D2"/>
		<stop  offset="0.748" style="stop-color:#77B1BE"/>
		<stop  offset="0.7965" style="stop-color:#9A8BAD"/>
		<stop  offset="0.861" style="stop-color:#C35E99"/>
		<stop  offset="0.9188" style="stop-color:#E03E8B"/>
		<stop  offset="0.9671" style="stop-color:#F22A82"/>
		<stop  offset="1" style="stop-color:#F9237F"/>
	</linearGradient>
	<path class="st0" d="M125,250C56.1,250,0,193.9,0,125S56.1,0,125,0s125,56.1,125,125S193.9,250,125,250z M125,11.3
		c-62.7,0-113.7,51-113.7,113.7s51,113.7,113.7,113.7s113.7-51,113.7-113.7S187.7,11.3,125,11.3z"/>
</g>
<g>
	
		<linearGradient id="SVGID_2_" gradientUnits="userSpaceOnUse" x1="-173.3809" y1="362.0369" x2="1637.0469" y2="-1096.8196" gradientTransform="matrix(1 0 0 -1 0 250)">
		<stop  offset="0" style="stop-color:#FA247C"/>
		<stop  offset="2.382660e-02" style="stop-color:#FA3077"/>
		<stop  offset="6.677425e-02" style="stop-color:#F94F6B"/>
		<stop  offset="0.1239" style="stop-color:#F88357"/>
		<stop  offset="0.1923" style="stop-color:#F6C83C"/>
		<stop  offset="0.2282" style="stop-color:#F5F02D"/>
		<stop  offset="0.2541" style="stop-color:#F5E932"/>
		<stop  offset="0.2915" style="stop-color:#F6D63F"/>
		<stop  offset="0.3358" style="stop-color:#F8B754"/>
		<stop  offset="0.3851" style="stop-color:#FA8B71"/>
		<stop  offset="0.4107" style="stop-color:#FB7282"/>
		<stop  offset="0.5496" style="stop-color:#AE20F2"/>
		<stop  offset="0.7282" style="stop-color:#60C0D2"/>
		<stop  offset="0.748" style="stop-color:#77B1BE"/>
		<stop  offset="0.7965" style="stop-color:#9A8BAD"/>
		<stop  offset="0.861" style="stop-color:#C35E99"/>
		<stop  offset="0.9188" style="stop-color:#E03E8B"/>
		<stop  offset="0.9671" style="stop-color:#F22A82"/>
		<stop  offset="1" style="stop-color:#F9237F"/>
	</linearGradient>
	<path class="st1" d="M145.7,213.1h-17.4v-30.6c-0.7,0.1-1.4,0.4-2.2,0.6c-1.3,0.2-2.4,0.5-3.2,0.7v29.4h-17.5v-26.9
		c-4.4,0.2-12.3,0.5-20.9,0.5H63.3l28.5-87.1h37.4l-21.5,66.3c3.5,0.4,7.9-0.5,13.6-3.1c1.5-0.6,36.6-16.2,36.6-47.3
		c0-6.2-1.5-10.8-4.7-13.9c-6.9-6.7-21-6.3-34.8-6c-3.1,0.1-6.1,0.1-9.2,0.1H50l17.2-27.2h38.6V36.8h16.9v31.9h5.9V36.8h16.9v31.9
		c1.4,0,3.3,0,6,0.1c7.4,0.1,28.8,3.8,39.6,18.6c6.7,9.3,8,21.2,3.6,35.3c-11.6,37.6-40.5,50.8-49,54L145.7,213.1L145.7,213.1z
		 M134.9,206.5h4.1v-34.8l2.5-0.7c0.4-0.1,34.6-10.3,46.9-50.3c3.6-11.9,2.8-21.8-2.7-29.3c-9.1-12.6-28.2-15.8-34.3-15.8
		c-8.1-0.1-9.1-0.1-9.2-0.1h-3.3V43.7h-3.5v31.9h-19.3V43.7h-3.5v31.9H70.9l-8.7,13.8h46.9c2.9,0,5.9-0.1,8.9-0.1
		c15.1-0.4,30.7-0.8,39.6,7.9c4.5,4.4,6.8,10.7,6.8,18.7c0,28.3-25.5,46.1-40.6,52.7c-12.6,5.4-19.9,4.1-22.1,3.9
		C101,172.3,99,172,99,172l20.8-65.5H96.5l-24.1,73.7h11.9c12.8,0,24-0.6,24.1-0.6l3.5-0.2v27.3h4.2v-28.3l2.8-0.5
		c0.1,0,1.5-0.2,5.6-1.2c3.9-0.8,5.6-1.6,5.6-1.6l4.7-2L134.9,206.5z"/>
</g>
<title>bcn</title>
</svg>
