<?xml version="1.0" encoding="utf-8"?>
<!-- Generator: Adobe Illustrator 21.1.0, SVG Export Plug-In . SVG Version: 6.00 Build 0)  -->
<svg version="1.1" id="Слой_1" xmlns="http://www.w3.org/2000/svg" xmlns:xlink="http://www.w3.org/1999/xlink" x="0px" y="0px"
	 viewBox="0 0 250 250" style="enable-background:new 0 0 250 250;" xml:space="preserve">
<style type="text/css">
	.st0{fill:url(#SVGID_1_);}
	.st1{fill:url(#SVGID_2_);}
</style>
<linearGradient id="SVGID_1_" gradientUnits="userSpaceOnUse" x1="-874.4534" y1="930.3151" x2="935.1231" y2="-527.8554" gradientTransform="matrix(1 0 0 -1 0 250)">
	<stop  offset="0" style="stop-color:#FA247C"/>
	<stop  offset="2.382660e-02" style="stop-color:#FA3077"/>
	<stop  offset="6.677425e-02" style="stop-color:#F94F6B"/>
	<stop  offset="0.1239" style="stop-color:#F88357"/>
	<stop  offset="0.1923" style="stop-color:#F6C83C"/>
	<stop  offset="0.2282" style="stop-color:#F5F02D"/>
	<stop  offset="0.2541" style="stop-color:#F5E932"/>
	<stop  offset="0.2915" style="stop-color:#F6D63F"/>
	<stop  offset="0.3358" style="stop-color:#F8B754"/>
	<stop  offset="0.3851" style="stop-color:#FA8B71"/>
	<stop  offset="0.4107" style="stop-color:#FB7282"/>
	<stop  offset="0.5496" style="stop-color:#AE20F2"/>
	<stop  offset="0.7282" style="stop-color:#60C0D2"/>
	<stop  offset="0.748" style="stop-color:#77B1BE"/>
	<stop  offset="0.7965" style="stop-color:#9A8BAD"/>
	<stop  offset="0.861" style="stop-color:#C35E99"/>
	<stop  offset="0.9188" style="stop-color:#E03E8B"/>
	<stop  offset="0.9671" style="stop-color:#F22A82"/>
	<stop  offset="1" style="stop-color:#F9237F"/>
</linearGradient>
<path class="st0" d="M124.9,250C56.1,250,0,193.9,0,125.1S56.1,0,124.9,0s124.9,56.1,124.9,125.1S193.8,250,124.9,250z M124.9,11.3
	c-62.6,0-113.7,51-113.7,113.7s51,113.7,113.7,113.7s113.7-51,113.7-113.7S187.6,11.3,124.9,11.3z"/>
<linearGradient id="SVGID_2_" gradientUnits="userSpaceOnUse" x1="-878.6149" y1="925.1506" x2="930.9615" y2="-533.0199" gradientTransform="matrix(1 0 0 -1 0 250)">
	<stop  offset="0" style="stop-color:#FA247C"/>
	<stop  offset="2.382660e-02" style="stop-color:#FA3077"/>
	<stop  offset="6.677425e-02" style="stop-color:#F94F6B"/>
	<stop  offset="0.1239" style="stop-color:#F88357"/>
	<stop  offset="0.1923" style="stop-color:#F6C83C"/>
	<stop  offset="0.2282" style="stop-color:#F5F02D"/>
	<stop  offset="0.2541" style="stop-color:#F5E932"/>
	<stop  offset="0.2915" style="stop-color:#F6D63F"/>
	<stop  offset="0.3358" style="stop-color:#F8B754"/>
	<stop  offset="0.3851" style="stop-color:#FA8B71"/>
	<stop  offset="0.4107" style="stop-color:#FB7282"/>
	<stop  offset="0.5496" style="stop-color:#AE20F2"/>
	<stop  offset="0.7282" style="stop-color:#60C0D2"/>
	<stop  offset="0.748" style="stop-color:#77B1BE"/>
	<stop  offset="0.7965" style="stop-color:#9A8BAD"/>
	<stop  offset="0.861" style="stop-color:#C35E99"/>
	<stop  offset="0.9188" style="stop-color:#E03E8B"/>
	<stop  offset="0.9671" style="stop-color:#F22A82"/>
	<stop  offset="1" style="stop-color:#F9237F"/>
</linearGradient>
<path class="st1" d="M94.5,187.5c-10,0-18.1,0-20-0.1c-1.3,0.1-2.5-0.4-3.4-1.3c-1.2-1.1-1.9-2.8-1.9-4.6c-0.1-1.8-0.1-7.1-0.1-12.1
	c0-3.5,0-6.9,0-8.5c0-1.8,0.2-3.5,0.7-5.5l0.6-2.2l2.4-0.2c2.9-0.2,5.8-0.2,8.6-0.1c1.3,0,2.5,0,3.8,0c0-10.7,0.2-45.1,0.2-56.1
	H74.4c-0.7,0-2.6,0-4-1.4c-0.8-0.8-1.3-1.9-1.3-3.1v-4.1c0-5.6-0.1-15.6-0.1-20.8c0-2.7,1.9-4.7,4.3-4.7c4.3,0,47.5,0,63.8,0h3.3
	c16.8,0,30.9,12.1,33.5,14.6c10.9,9.8,17.5,24.4,18.8,41.3c0.1,1.5,0.1,3.1,0.2,4.7v1.2c0,9.1-0.9,16.7-2.8,23.5
	c-1.5,5.6-3.6,10.8-6.3,15.4c-1.8,2.7-4,5.9-6.8,8.8c-2,2-3.6,3.6-5.4,4.9c-9.3,7.1-20.9,10.8-32.6,10.6c-3.1,0-10.5,0-19.3,0
	C111.5,187.5,102.4,187.5,94.5,187.5z M75.7,180.9c5.6,0.1,27.6,0,44.1,0c8.8,0,16.2,0,19.3,0c10.3,0.2,20.3-3.1,28.6-9.3
	c1.4-1.1,2.9-2.5,4.7-4.2c2.5-2.5,4.5-5.4,5.9-7.6c2.4-3.9,4.2-8.6,5.5-13.6c1.6-6.2,2.6-13.4,2.6-21.6v-1.1c0-1.4-0.1-2.9-0.2-4.3
	l0,0c-1.1-14.9-7.2-28.4-16.6-36.9c-1.4-1.3-14.5-12.8-29.1-12.8H137c-14.7,0-51.5,0-61.6,0c0,5.5,0,14,0.1,18.9v2h16.1v3.3
	c0,0-0.2,60.8-0.2,62.5v3.1l-3.1,0.2c-2.5,0.1-4.9,0.1-7.4,0.1c-1.9,0-3.6-0.1-5.4,0c-0.1,0.6-0.1,1.1-0.1,1.5c0,1.5,0,4.9,0,8.6
	C75.6,173.8,75.6,178.8,75.7,180.9z M75.7,92.4L75.7,92.4L75.7,92.4z M73.5,69.2L73.5,69.2L73.5,69.2L73.5,69.2z M129.2,159.4h-8.9
	l-0.9-0.9c-1.3-1.3-1.6-1.6-0.8-60.4v-1.9c0-5.8,4.3-5.8,6.5-5.8c0.8,0,2.4,0,4,0c1.4,0,2.9,0,4.2,0c7.8,0,12.6,5.3,13.9,6.8
	c6.5,8.5,9.4,20,8.3,32.8l0,0C154.3,140.8,147.7,159.4,129.2,159.4z M124.6,152.8h4.6c17,0,19.4-21,19.6-23.4
	c0.9-11.2-1.5-21-6.9-28.1c-0.8-1.1-3.9-4.3-8.7-4.3c-1.3,0-2.7,0-4.1,0c-1.6,0-3.2,0-4,0V98C124.5,134.7,124.5,148,124.6,152.8z"/>
<title>bcn</title>
</svg>
