<?xml version="1.0" encoding="utf-8"?>
<!-- Generator: Adobe Illustrator 21.1.0, SVG Export Plug-In . SVG Version: 6.00 Build 0)  -->
<svg version="1.1" id="Слой_1" xmlns="http://www.w3.org/2000/svg" xmlns:xlink="http://www.w3.org/1999/xlink" x="0px" y="0px"
	 viewBox="0 0 250 250" style="enable-background:new 0 0 250 250;" xml:space="preserve">
<style type="text/css">
	.st0{fill:url(#SVGID_1_);}
	.st1{fill:url(#SVGID_2_);}
</style>
<linearGradient id="SVGID_1_" gradientUnits="userSpaceOnUse" x1="-1188.7791" y1="1183.5945" x2="621.6483" y2="-275.2618" gradientTransform="matrix(1 0 0 -1 0 250)">
	<stop  offset="0" style="stop-color:#FA247C"/>
	<stop  offset="2.382660e-02" style="stop-color:#FA3077"/>
	<stop  offset="6.677425e-02" style="stop-color:#F94F6B"/>
	<stop  offset="0.1239" style="stop-color:#F88357"/>
	<stop  offset="0.1923" style="stop-color:#F6C83C"/>
	<stop  offset="0.2282" style="stop-color:#F5F02D"/>
	<stop  offset="0.2541" style="stop-color:#F5E932"/>
	<stop  offset="0.2915" style="stop-color:#F6D63F"/>
	<stop  offset="0.3358" style="stop-color:#F8B754"/>
	<stop  offset="0.3851" style="stop-color:#FA8B71"/>
	<stop  offset="0.4107" style="stop-color:#FB7282"/>
	<stop  offset="0.5496" style="stop-color:#AE20F2"/>
	<stop  offset="0.7282" style="stop-color:#60C0D2"/>
	<stop  offset="0.748" style="stop-color:#77B1BE"/>
	<stop  offset="0.7965" style="stop-color:#9A8BAD"/>
	<stop  offset="0.861" style="stop-color:#C35E99"/>
	<stop  offset="0.9188" style="stop-color:#E03E8B"/>
	<stop  offset="0.9671" style="stop-color:#F22A82"/>
	<stop  offset="1" style="stop-color:#F9237F"/>
</linearGradient>
<path class="st0" d="M125,250.1c-68.9,0-125-56.1-125-125S56.1,0,125,0s125,56.1,125,125S193.9,250.1,125,250.1z M125,11.3
	c-62.7,0-113.7,51-113.7,113.7s51,113.7,113.7,113.7s113.7-51,113.7-113.7C238.7,62.3,187.7,11.3,125,11.3z"/>
<linearGradient id="SVGID_2_" gradientUnits="userSpaceOnUse" x1="-1190.8722" y1="1180.9968" x2="619.5551" y2="-277.8594" gradientTransform="matrix(1 0 0 -1 0 250)">
	<stop  offset="0" style="stop-color:#FA247C"/>
	<stop  offset="2.382660e-02" style="stop-color:#FA3077"/>
	<stop  offset="6.677425e-02" style="stop-color:#F94F6B"/>
	<stop  offset="0.1239" style="stop-color:#F88357"/>
	<stop  offset="0.1923" style="stop-color:#F6C83C"/>
	<stop  offset="0.2282" style="stop-color:#F5F02D"/>
	<stop  offset="0.2541" style="stop-color:#F5E932"/>
	<stop  offset="0.2915" style="stop-color:#F6D63F"/>
	<stop  offset="0.3358" style="stop-color:#F8B754"/>
	<stop  offset="0.3851" style="stop-color:#FA8B71"/>
	<stop  offset="0.4107" style="stop-color:#FB7282"/>
	<stop  offset="0.5496" style="stop-color:#AE20F2"/>
	<stop  offset="0.7282" style="stop-color:#60C0D2"/>
	<stop  offset="0.748" style="stop-color:#77B1BE"/>
	<stop  offset="0.7965" style="stop-color:#9A8BAD"/>
	<stop  offset="0.861" style="stop-color:#C35E99"/>
	<stop  offset="0.9188" style="stop-color:#E03E8B"/>
	<stop  offset="0.9671" style="stop-color:#F22A82"/>
	<stop  offset="1" style="stop-color:#F9237F"/>
</linearGradient>
<path class="st1" d="M125,199.8L125,199.8c-0.8,0-1.5-0.2-2.1-0.6L76.2,170c-0.6-0.4-1.1-0.9-1.4-1.5c-0.1-0.2-0.2-0.5-0.4-0.8
	c-0.1-0.5-0.1-1.1-0.1-1.6l0,0l0,0c0-0.1,0-0.1,0-0.2l15.2-69.4c0.1-0.6,0.4-1.2,0.7-1.6l31.4-42.9c0.7-1.1,2-1.6,3.2-1.6l0,0
	c1.2,0,2.5,0.6,3.2,1.6l31.4,42.9c0.1,0.1,0.2,0.2,0.2,0.4l0,0l0,0c0,0.1,0.1,0.2,0.1,0.2c0.1,0.2,0.2,0.6,0.4,0.9l15.2,69.4
	c0,0.1,0,0.2,0,0.2c0.1,0.5,0,1.1-0.1,1.5c-0.1,0.2-0.2,0.6-0.4,0.8c-0.4,0.6-0.8,1.2-1.4,1.5L126.6,199
	C126.4,199.6,125.7,199.8,125,199.8z M137.2,170.6l-5.2,16.2l26-16.2H137.2z M92.1,170.6l26,16.2l-5.2-16.2H92.1z M121,170.6l4,12.3
	l4-12.3H121z M139.7,162.7h25.2l-16.1-28.5L139.7,162.7z M118.5,162.7h12.9l12-37.7L125,92.4L106.5,125L118.5,162.7z M85.1,162.7
	h25.2l-9.1-28.5L85.1,162.7z M94.2,112.3l-6.5,29.8l10.2-18L94.2,112.3z M152,124.1l10.2,18l-6.5-29.8L152,124.1z M129,83.4
	l17.8,31.4l5.4-16.8L129,66.3L129,83.4L129,83.4z M98,97.8l5.4,16.8l17.8-31.4V66.2L98,97.8z"/>
<title>bcn</title>
</svg>
