<?xml version="1.0" encoding="utf-8"?>
<!-- Generator: Adobe Illustrator 21.1.0, SVG Export Plug-In . SVG Version: 6.00 Build 0)  -->
<svg version="1.1" id="Слой_1" xmlns="http://www.w3.org/2000/svg" xmlns:xlink="http://www.w3.org/1999/xlink" x="0px" y="0px"
	 viewBox="0 0 250 250" style="enable-background:new 0 0 250 250;" xml:space="preserve">
<style type="text/css">
	.st0{fill:url(#SVGID_1_);}
	.st1{fill:url(#SVGID_2_);}
	.st2{fill:url(#SVGID_3_);}
</style>
<g>
	
		<linearGradient id="SVGID_1_" gradientUnits="userSpaceOnUse" x1="23.0635" y1="207.1412" x2="1833.4912" y2="-1251.7153" gradientTransform="matrix(1 0 0 -1 0 250)">
		<stop  offset="0" style="stop-color:#FA247C"/>
		<stop  offset="2.382660e-02" style="stop-color:#FA3077"/>
		<stop  offset="6.677425e-02" style="stop-color:#F94F6B"/>
		<stop  offset="0.1239" style="stop-color:#F88357"/>
		<stop  offset="0.1923" style="stop-color:#F6C83C"/>
		<stop  offset="0.2282" style="stop-color:#F5F02D"/>
		<stop  offset="0.2541" style="stop-color:#F5E932"/>
		<stop  offset="0.2915" style="stop-color:#F6D63F"/>
		<stop  offset="0.3358" style="stop-color:#F8B754"/>
		<stop  offset="0.3851" style="stop-color:#FA8B71"/>
		<stop  offset="0.4107" style="stop-color:#FB7282"/>
		<stop  offset="0.5496" style="stop-color:#AE20F2"/>
		<stop  offset="0.7282" style="stop-color:#60C0D2"/>
		<stop  offset="0.748" style="stop-color:#77B1BE"/>
		<stop  offset="0.7965" style="stop-color:#9A8BAD"/>
		<stop  offset="0.861" style="stop-color:#C35E99"/>
		<stop  offset="0.9188" style="stop-color:#E03E8B"/>
		<stop  offset="0.9671" style="stop-color:#F22A82"/>
		<stop  offset="1" style="stop-color:#F9237F"/>
	</linearGradient>
	<path class="st0" d="M125,250C56.1,250,0,193.9,0,125S56.1,0,125,0s125,56.1,125,125S193.9,250,125,250z M125,11.3
		c-62.7,0-113.7,51-113.7,113.7s51,113.7,113.7,113.7s113.7-51,113.7-113.7S187.7,11.3,125,11.3z"/>
</g>
<g>
	<g>
		
			<linearGradient id="SVGID_2_" gradientUnits="userSpaceOnUse" x1="35.1799" y1="222.1776" x2="1845.6077" y2="-1236.679" gradientTransform="matrix(1 0 0 -1 0 250)">
			<stop  offset="0" style="stop-color:#FA247C"/>
			<stop  offset="2.382660e-02" style="stop-color:#FA3077"/>
			<stop  offset="6.677425e-02" style="stop-color:#F94F6B"/>
			<stop  offset="0.1239" style="stop-color:#F88357"/>
			<stop  offset="0.1923" style="stop-color:#F6C83C"/>
			<stop  offset="0.2282" style="stop-color:#F5F02D"/>
			<stop  offset="0.2541" style="stop-color:#F5E932"/>
			<stop  offset="0.2915" style="stop-color:#F6D63F"/>
			<stop  offset="0.3358" style="stop-color:#F8B754"/>
			<stop  offset="0.3851" style="stop-color:#FA8B71"/>
			<stop  offset="0.4107" style="stop-color:#FB7282"/>
			<stop  offset="0.5496" style="stop-color:#AE20F2"/>
			<stop  offset="0.7282" style="stop-color:#60C0D2"/>
			<stop  offset="0.748" style="stop-color:#77B1BE"/>
			<stop  offset="0.7965" style="stop-color:#9A8BAD"/>
			<stop  offset="0.861" style="stop-color:#C35E99"/>
			<stop  offset="0.9188" style="stop-color:#E03E8B"/>
			<stop  offset="0.9671" style="stop-color:#F22A82"/>
			<stop  offset="1" style="stop-color:#F9237F"/>
		</linearGradient>
		<path class="st1" d="M127.5,156L127.5,156l54-31.9l-2.6-4.2l0,0l-54-89.5l-54,89.5l0,0l-2.6,4.2l56.4,33.4L127.5,156z M81.6,123.2
			l39.5-18v41.4l-0.7-0.4L81.6,123.2z M128.6,146.6v-41.4l39.5,18L128.6,146.6z M166.9,114.4L128.6,97V51L166.9,114.4z M121.2,51v46
			L83,114.4L121.2,51z"/>
	</g>
	<g>
		
			<linearGradient id="SVGID_3_" gradientUnits="userSpaceOnUse" x1="11.2168" y1="192.4397" x2="1821.6447" y2="-1266.417" gradientTransform="matrix(1 0 0 -1 0 250)">
			<stop  offset="0" style="stop-color:#FA247C"/>
			<stop  offset="2.382660e-02" style="stop-color:#FA3077"/>
			<stop  offset="6.677425e-02" style="stop-color:#F94F6B"/>
			<stop  offset="0.1239" style="stop-color:#F88357"/>
			<stop  offset="0.1923" style="stop-color:#F6C83C"/>
			<stop  offset="0.2282" style="stop-color:#F5F02D"/>
			<stop  offset="0.2541" style="stop-color:#F5E932"/>
			<stop  offset="0.2915" style="stop-color:#F6D63F"/>
			<stop  offset="0.3358" style="stop-color:#F8B754"/>
			<stop  offset="0.3851" style="stop-color:#FA8B71"/>
			<stop  offset="0.4107" style="stop-color:#FB7282"/>
			<stop  offset="0.5496" style="stop-color:#AE20F2"/>
			<stop  offset="0.7282" style="stop-color:#60C0D2"/>
			<stop  offset="0.748" style="stop-color:#77B1BE"/>
			<stop  offset="0.7965" style="stop-color:#9A8BAD"/>
			<stop  offset="0.861" style="stop-color:#C35E99"/>
			<stop  offset="0.9188" style="stop-color:#E03E8B"/>
			<stop  offset="0.9671" style="stop-color:#F22A82"/>
			<stop  offset="1" style="stop-color:#F9237F"/>
		</linearGradient>
		<path class="st2" d="M126.8,212.4l54.9-83.4L125,162.3L68.3,129l54.9,83.4l1.6,2.7V215v0.1L126.8,212.4z M128.8,196.7v-28
			l26.6-15.4L128.8,196.7z M121.2,168.6v28l-26.6-43.5L121.2,168.6z"/>
	</g>
</g>
<title>bcn</title>
</svg>
