<?xml version="1.0" encoding="utf-8"?>
<!-- Generator: Adobe Illustrator 21.1.0, SVG Export Plug-In . SVG Version: 6.00 Build 0)  -->
<svg version="1.1" id="Слой_1" xmlns="http://www.w3.org/2000/svg" xmlns:xlink="http://www.w3.org/1999/xlink" x="0px" y="0px"
	 viewBox="0 0 250 250" style="enable-background:new 0 0 250 250;" xml:space="preserve">
<style type="text/css">
	.st0{fill:url(#SVGID_1_);}
	.st1{fill:url(#SVGID_2_);}
</style>
<g>
	
		<linearGradient id="SVGID_1_" gradientUnits="userSpaceOnUse" x1="-133.8941" y1="333.6189" x2="1676.5338" y2="-1125.2378" gradientTransform="matrix(1 0 0 -1 0 250)">
		<stop  offset="0" style="stop-color:#FA247C"/>
		<stop  offset="2.382660e-02" style="stop-color:#FA3077"/>
		<stop  offset="6.677425e-02" style="stop-color:#F94F6B"/>
		<stop  offset="0.1239" style="stop-color:#F88357"/>
		<stop  offset="0.1923" style="stop-color:#F6C83C"/>
		<stop  offset="0.2282" style="stop-color:#F5F02D"/>
		<stop  offset="0.2541" style="stop-color:#F5E932"/>
		<stop  offset="0.2915" style="stop-color:#F6D63F"/>
		<stop  offset="0.3358" style="stop-color:#F8B754"/>
		<stop  offset="0.3851" style="stop-color:#FA8B71"/>
		<stop  offset="0.4107" style="stop-color:#FB7282"/>
		<stop  offset="0.5496" style="stop-color:#AE20F2"/>
		<stop  offset="0.7282" style="stop-color:#60C0D2"/>
		<stop  offset="0.748" style="stop-color:#77B1BE"/>
		<stop  offset="0.7965" style="stop-color:#9A8BAD"/>
		<stop  offset="0.861" style="stop-color:#C35E99"/>
		<stop  offset="0.9188" style="stop-color:#E03E8B"/>
		<stop  offset="0.9671" style="stop-color:#F22A82"/>
		<stop  offset="1" style="stop-color:#F9237F"/>
	</linearGradient>
	<path class="st0" d="M125,250C56.1,250,0,193.9,0,125S56.1,0,125,0s125,56.1,125,125S193.9,250,125,250z M125,11.2
		c-62.7,0-113.7,51-113.7,113.7s51,113.7,113.7,113.7s113.7-51,113.7-113.7C238.8,62.2,187.8,11.2,125,11.2z"/>
</g>
<g>
	
		<linearGradient id="SVGID_2_" gradientUnits="userSpaceOnUse" x1="-139.5828" y1="326.5592" x2="1670.8451" y2="-1132.2974" gradientTransform="matrix(1 0 0 -1 0 250)">
		<stop  offset="0" style="stop-color:#FA247C"/>
		<stop  offset="2.382660e-02" style="stop-color:#FA3077"/>
		<stop  offset="6.677425e-02" style="stop-color:#F94F6B"/>
		<stop  offset="0.1239" style="stop-color:#F88357"/>
		<stop  offset="0.1923" style="stop-color:#F6C83C"/>
		<stop  offset="0.2282" style="stop-color:#F5F02D"/>
		<stop  offset="0.2541" style="stop-color:#F5E932"/>
		<stop  offset="0.2915" style="stop-color:#F6D63F"/>
		<stop  offset="0.3358" style="stop-color:#F8B754"/>
		<stop  offset="0.3851" style="stop-color:#FA8B71"/>
		<stop  offset="0.4107" style="stop-color:#FB7282"/>
		<stop  offset="0.5496" style="stop-color:#AE20F2"/>
		<stop  offset="0.7282" style="stop-color:#60C0D2"/>
		<stop  offset="0.748" style="stop-color:#77B1BE"/>
		<stop  offset="0.7965" style="stop-color:#9A8BAD"/>
		<stop  offset="0.861" style="stop-color:#C35E99"/>
		<stop  offset="0.9188" style="stop-color:#E03E8B"/>
		<stop  offset="0.9671" style="stop-color:#F22A82"/>
		<stop  offset="1" style="stop-color:#F9237F"/>
	</linearGradient>
	<path class="st1" d="M128.6,152.9l4.6-17.2l16-5.9l8.2-32.1l-15.8,6l11.2-42.9h-50.7l-16.9,63.7l-13.9,5.2l-8.8,32.2l14.1-5.1
		l-8.6,32.2H178l9.5-36.2L128.6,152.9L128.6,152.9z M172.7,182.5H76.9l9.5-36.7l-14,5.3l4.5-16.5l13.8-5.1l16.6-62l36.9-0.1
		l-12.3,46.9l16-5.9l-4.2,16.1l-16,5.9l-7.8,28.9H179L172.7,182.5z"/>
</g>
<title>bcn</title>
</svg>
