<?xml version="1.0" encoding="utf-8"?>
<!-- Generator: Adobe Illustrator 21.1.0, SVG Export Plug-In . SVG Version: 6.00 Build 0)  -->
<svg version="1.1" id="Слой_1" xmlns="http://www.w3.org/2000/svg" xmlns:xlink="http://www.w3.org/1999/xlink" x="0px" y="0px"
	 viewBox="0 0 250 250" style="enable-background:new 0 0 250 250;" xml:space="preserve">
<style type="text/css">
	.st0{fill:url(#SVGID_1_);}
	.st1{fill:url(#SVGID_2_);}
</style>
<g>
	
		<linearGradient id="SVGID_1_" gradientUnits="userSpaceOnUse" x1="-680.2421" y1="773.8703" x2="1130.1853" y2="-684.986" gradientTransform="matrix(1 0 0 -1 0 250)">
		<stop  offset="0" style="stop-color:#FA247C"/>
		<stop  offset="2.382660e-02" style="stop-color:#FA3077"/>
		<stop  offset="6.677425e-02" style="stop-color:#F94F6B"/>
		<stop  offset="0.1239" style="stop-color:#F88357"/>
		<stop  offset="0.1923" style="stop-color:#F6C83C"/>
		<stop  offset="0.2282" style="stop-color:#F5F02D"/>
		<stop  offset="0.2541" style="stop-color:#F5E932"/>
		<stop  offset="0.2915" style="stop-color:#F6D63F"/>
		<stop  offset="0.3358" style="stop-color:#F8B754"/>
		<stop  offset="0.3851" style="stop-color:#FA8B71"/>
		<stop  offset="0.4107" style="stop-color:#FB7282"/>
		<stop  offset="0.5496" style="stop-color:#AE20F2"/>
		<stop  offset="0.7282" style="stop-color:#60C0D2"/>
		<stop  offset="0.748" style="stop-color:#77B1BE"/>
		<stop  offset="0.7965" style="stop-color:#9A8BAD"/>
		<stop  offset="0.861" style="stop-color:#C35E99"/>
		<stop  offset="0.9188" style="stop-color:#E03E8B"/>
		<stop  offset="0.9671" style="stop-color:#F22A82"/>
		<stop  offset="1" style="stop-color:#F9237F"/>
	</linearGradient>
	<path class="st0" d="M125,0C56.1,0,0,56.1,0,125s56.1,125,125,125s125-56.1,125-125S193.9,0,125,0z M56,115.7
		c0-25.6,20.8-63.6,65.6-63.6s65.6,39.2,65.6,65.6c0,31.5-25.2,65.6-65.7,65.6c-29.4,0-46.8-19.4-46.9-19.5l-9.8-11.3v64
		c-2.7-1.5-5.8-3.4-8.6-5.5C56.1,198.4,56,146.8,56,115.7z M70.3,224.8v-57.5c0,0,18.7,21.5,51.2,21.5c44.2,0,71.4-37,71.4-71.1
		c0-28.3-22-71.1-71.1-71.1c-47.5,0-71.3,40.5-71.3,69.3c0,31.3,0.1,83.3,0.1,95.4c-2.9-2.6-5.9-5.3-8.5-8.2v-85.1
		c0-57.3,49.9-79.5,79.6-79.5c29.8,0,79.6,22.2,79.6,79.5s-48.7,79.5-79.5,79.5C91,197.3,78.6,185,78.6,185l0.4,44.2
		C75.8,227.7,73,226.4,70.3,224.8z M125,238.8c-14.3,0-28.1-2.7-40.8-7.5c0-1.8,0-3.8,0-6L84,195c7.5,3.6,19.8,7.6,37.6,7.6
		c35.3,0,85.1-26.3,85.1-85.1c0-58.7-49.9-85.1-85.1-85.1c-35.4,0-85.1,26.3-85.1,85.1v76.1c0,0.8,0,1.8,0,2.7
		c-15.8-19.5-25.2-44.3-25.2-71.4c0-62.8,51-113.8,113.8-113.8s113.8,51,113.8,113.8C238.8,187.8,187.8,238.8,125,238.8z"/>
	
		<linearGradient id="SVGID_2_" gradientUnits="userSpaceOnUse" x1="-677.9189" y1="776.7533" x2="1132.5085" y2="-682.103" gradientTransform="matrix(1 0 0 -1 0 250)">
		<stop  offset="0" style="stop-color:#FA247C"/>
		<stop  offset="2.382660e-02" style="stop-color:#FA3077"/>
		<stop  offset="6.677425e-02" style="stop-color:#F94F6B"/>
		<stop  offset="0.1239" style="stop-color:#F88357"/>
		<stop  offset="0.1923" style="stop-color:#F6C83C"/>
		<stop  offset="0.2282" style="stop-color:#F5F02D"/>
		<stop  offset="0.2541" style="stop-color:#F5E932"/>
		<stop  offset="0.2915" style="stop-color:#F6D63F"/>
		<stop  offset="0.3358" style="stop-color:#F8B754"/>
		<stop  offset="0.3851" style="stop-color:#FA8B71"/>
		<stop  offset="0.4107" style="stop-color:#FB7282"/>
		<stop  offset="0.5496" style="stop-color:#AE20F2"/>
		<stop  offset="0.7282" style="stop-color:#60C0D2"/>
		<stop  offset="0.748" style="stop-color:#77B1BE"/>
		<stop  offset="0.7965" style="stop-color:#9A8BAD"/>
		<stop  offset="0.861" style="stop-color:#C35E99"/>
		<stop  offset="0.9188" style="stop-color:#E03E8B"/>
		<stop  offset="0.9671" style="stop-color:#F22A82"/>
		<stop  offset="1" style="stop-color:#F9237F"/>
	</linearGradient>
	<path class="st1" d="M121.7,174.7c31.5,0,57.1-25.6,57.1-57.1s-25.6-57.1-57.1-57.1c-31.5,0-57.1,25.6-57.1,57.1
		C64.6,149.1,90.2,174.7,121.7,174.7z M121.7,71.7c25.3,0,45.9,20.6,45.9,45.9s-20.6,45.9-45.9,45.9s-45.9-20.6-45.9-45.9
		S96.3,71.7,121.7,71.7z"/>
</g>
<title>bcn</title>
</svg>
