<?xml version="1.0" encoding="utf-8"?>
<!-- Generator: Adobe Illustrator 21.1.0, SVG Export Plug-In . SVG Version: 6.00 Build 0)  -->
<svg version="1.1" id="Слой_1" xmlns="http://www.w3.org/2000/svg" xmlns:xlink="http://www.w3.org/1999/xlink" x="0px" y="0px"
	 viewBox="0 0 250 250" style="enable-background:new 0 0 250 250;" xml:space="preserve">
<style type="text/css">
	.st0{fill:url(#SVGID_1_);}
</style>
<title>bcn</title>
<linearGradient id="SVGID_1_" gradientUnits="userSpaceOnUse" x1="30.043" y1="43.8541" x2="218.0941" y2="204.5645">
	<stop  offset="0" style="stop-color:#FB7282"/>
	<stop  offset="1" style="stop-color:#AE20F2"/>
</linearGradient>
<path class="st0" d="M125,0C56.1,0,0,56.2,0,125.1S56.1,250,125,250s125-55.9,125-124.9S193.9,0,125,0z M125,238.6
	c-62.7,0-113.7-51-113.7-113.7S62.3,11.3,125,11.3s113.7,51,113.7,113.7c0,24.8-8,47.8-21.6,66.5l-16.9-15.3l16.3-50.4l0-0.1v-1.3
	l-16.7-51.9c0-0.1-0.1-0.3-0.1-0.4v-0.1l-0.5-0.5c-0.1-0.3-0.3-0.5-0.6-0.5l-43.9-32.1l-0.3-0.2H98.9c-0.3,0-0.4,0.1-1.1,0.5
	c-0.3,0.2-0.8,0.6-1.4,1c-1.2,0.8-2.9,2.1-5.1,3.6C87.6,46.6,82.5,50.3,76,55C65,62.9,53.9,71,53.8,71l-0.1,0l-0.8,0.8v0.6
	l-16.8,51.7l0,0.1v1.3l16.8,51.8v0c0,0.4,0.1,0.7,0.4,0.9l0.5,0.5l43.8,31.7c0.2,0.3,0.5,0.5,0.8,0.5c0.2,0.1,0.4,0.2,0.7,0.2h55.1
	l0.2-0.2c0.1,0,0.2-0.1,0.3-0.1h0l42.6-30.9l16.8,15.3C193.3,221.7,161.1,238.6,125,238.6z M210.9,127.3l-11.8,36.9l-2.3-36.9H210.9
	z M196.8,122.7l2.3-36.9l11.8,36.9H196.8z M137.7,102.8l11.5,19.9h-45.8l23-39.7L137.7,102.8z M130.7,81.2l38.1,4.8l-15.7,33.9
	L130.7,81.2z M117.7,88.5l-18.1,31.3L84,86l37.9-4.8L117.7,88.5z M90.1,110.9l5.5,11.8H62.3l18-33.3L90.1,110.9z M95.7,127.3
	l-15.4,33.3l-18-33.3H95.7z M95.8,138.4l3.9-8.3l22.2,38.6L84,164L95.8,138.4z M114.9,147.2l-11.5-19.9h45.8L126.4,167L114.9,147.2z
	 M135.4,160.8l17.7-30.7l15.6,33.9l-38,4.8L135.4,160.8z M162.6,139.6l-5.5-12.3h33.3l-18,33.3L162.6,139.6z M157.1,122.7l15.4-33.3
	l18,33.3H157.1z M159.2,48.1l33.5,24.4l-19.4,8.4L159.2,48.1z M168.3,81.1l-37.7-4.7L153,45.8L168.3,81.1z M126.4,74.2l-22.6-30.7
	h45L126.4,74.2z M121.9,76.4l-37.7,4.7l15.3-35.3L121.9,76.4z M79.2,80.9l-19.4-8.4l33.5-24.4L79.2,80.9z M69.1,81.7l7.9,3.4
	l-16.8,31.2l0-0.4l-2.4-39.2L69.1,81.7z M60.2,133.7l0-0.1L77,164.9l-19.2,8.4L60.2,133.7z M79.2,169.1l14.2,32.8l-33.5-24.4
	L79.2,169.1z M84.3,168.9l37.7,4.7l-22.3,30.6L84.3,168.9z M126.4,175.8l22.4,30.7h-45L126.4,175.8z M130.7,173.6l37.7-4.7
	L153,204.2L130.7,173.6z M173.4,169.1l19.4,8.4l-33.5,24.4L173.4,169.1z M183.5,168.3l-7.9-3.4l16.8-31.2v0.1l2.4,39.6L183.5,168.3z
	 M192.4,115.9l0,0.4l-16.8-31.2l19.2-8.4L192.4,115.9z M55.8,127.3L55.8,127.3l-2.3,36.9l-11.8-36.9H55.8z M41.7,122.7l11.8-36.9
	l2.3,36.9H41.7z"/>
</svg>
