<?xml version="1.0" encoding="utf-8"?>
<!-- Generator: Adobe Illustrator 21.1.0, SVG Export Plug-In . SVG Version: 6.00 Build 0)  -->
<svg version="1.1" id="Слой_1" xmlns="http://www.w3.org/2000/svg" xmlns:xlink="http://www.w3.org/1999/xlink" x="0px" y="0px"
	 viewBox="0 0 250 250" style="enable-background:new 0 0 250 250;" xml:space="preserve">
<style type="text/css">
	.st0{fill:url(#SVGID_1_);}
	.st1{fill:url(#SVGID_2_);}
</style>
<linearGradient id="SVGID_1_" gradientUnits="userSpaceOnUse" x1="-328.6771" y1="490.5765" x2="1481.7507" y2="-968.2802" gradientTransform="matrix(1 0 0 -1 0 250)">
	<stop  offset="0" style="stop-color:#FA247C"/>
	<stop  offset="2.382660e-02" style="stop-color:#FA3077"/>
	<stop  offset="6.677425e-02" style="stop-color:#F94F6B"/>
	<stop  offset="0.1239" style="stop-color:#F88357"/>
	<stop  offset="0.1923" style="stop-color:#F6C83C"/>
	<stop  offset="0.2282" style="stop-color:#F5F02D"/>
	<stop  offset="0.2541" style="stop-color:#F5E932"/>
	<stop  offset="0.2915" style="stop-color:#F6D63F"/>
	<stop  offset="0.3358" style="stop-color:#F8B754"/>
	<stop  offset="0.3851" style="stop-color:#FA8B71"/>
	<stop  offset="0.4107" style="stop-color:#FB7282"/>
	<stop  offset="0.5496" style="stop-color:#AE20F2"/>
	<stop  offset="0.7282" style="stop-color:#60C0D2"/>
	<stop  offset="0.748" style="stop-color:#77B1BE"/>
	<stop  offset="0.7965" style="stop-color:#9A8BAD"/>
	<stop  offset="0.861" style="stop-color:#C35E99"/>
	<stop  offset="0.9188" style="stop-color:#E03E8B"/>
	<stop  offset="0.9671" style="stop-color:#F22A82"/>
	<stop  offset="1" style="stop-color:#F9237F"/>
</linearGradient>
<path class="st0" d="M125,250C56.1,250,0,193.9,0,125S56.1,0,125,0s125,56.1,125,125S193.9,250,125,250z M125,11.2
	c-62.7,0-113.7,51-113.7,113.7s51,113.7,113.7,113.7s113.7-51,113.7-113.7S187.7,11.2,125,11.2z"/>
<linearGradient id="SVGID_2_" gradientUnits="userSpaceOnUse" x1="-330.0193" y1="488.9106" x2="1480.4084" y2="-969.946" gradientTransform="matrix(1 0 0 -1 0 250)">
	<stop  offset="0" style="stop-color:#FA247C"/>
	<stop  offset="2.382660e-02" style="stop-color:#FA3077"/>
	<stop  offset="6.677425e-02" style="stop-color:#F94F6B"/>
	<stop  offset="0.1239" style="stop-color:#F88357"/>
	<stop  offset="0.1923" style="stop-color:#F6C83C"/>
	<stop  offset="0.2282" style="stop-color:#F5F02D"/>
	<stop  offset="0.2541" style="stop-color:#F5E932"/>
	<stop  offset="0.2915" style="stop-color:#F6D63F"/>
	<stop  offset="0.3358" style="stop-color:#F8B754"/>
	<stop  offset="0.3851" style="stop-color:#FA8B71"/>
	<stop  offset="0.4107" style="stop-color:#FB7282"/>
	<stop  offset="0.5496" style="stop-color:#AE20F2"/>
	<stop  offset="0.7282" style="stop-color:#60C0D2"/>
	<stop  offset="0.748" style="stop-color:#77B1BE"/>
	<stop  offset="0.7965" style="stop-color:#9A8BAD"/>
	<stop  offset="0.861" style="stop-color:#C35E99"/>
	<stop  offset="0.9188" style="stop-color:#E03E8B"/>
	<stop  offset="0.9671" style="stop-color:#F22A82"/>
	<stop  offset="1" style="stop-color:#F9237F"/>
</linearGradient>
<path class="st1" d="M123.5,199c-1.1,0-2.1-0.2-3.1-0.8l-80.3-44.7c-0.1-0.1-0.2-0.4-0.1-0.5l3.4-6.2c0.1-0.1,0.4-0.2,0.5-0.1
	l79.4,44.1c0.1,0,0.2,0,0.4,0l77-43c0.1-0.1,0.1-0.1,0.1-0.4V135c0-0.2-0.2-0.5-0.5-0.4l-74,40.1c-2,1.1-4.4,1.1-6.2-0.1l-78.4-45.4
	c-1.9-1.1-3.1-3.2-3.2-5.3L38,103.1c-0.1-2.4,1.2-4.5,3.1-5.6c0.5-0.4,78.9-45.6,78.9-45.6c2-1.2,4.5-1.2,6.5,0L203,96.5
	c2,1.2,3.2,3.2,3.2,5.5s-1.2,4.4-3.2,5.5l-76.6,43.7c-2,1.1-4.4,1.2-6.3,0l-73.7-42.2c-0.2-0.1-0.5,0-0.5,0.4l0.4,13.4
	c0,0.1,0.1,0.2,0.1,0.2l76.7,44.4c0.1,0.1,0.2,0.1,0.4,0l75.7-41c2.2-1.2,4.8-1.1,6.9,0.5c1.6,1.3,2.5,3.4,2.5,5.5v15.6
	c0,2.5-1.3,4.7-3.4,5.9l-78.6,44.1C125.6,198.6,124.5,199,123.5,199z M49.6,102.2l73.5,42c0.1,0.1,0.2,0.1,0.4,0l73-41.7
	c0.2-0.1,0.2-0.5,0-0.6l-73-42.7c-0.1-0.1-0.2-0.1-0.4,0l-73.5,42.5C49.4,101.7,49.4,102.1,49.6,102.2z M46.2,123.8L46.2,123.8
	L46.2,123.8z"/>
<title>bcn</title>
</svg>
