<?xml version="1.0" encoding="utf-8"?>
<!-- Generator: Adobe Illustrator 21.1.0, SVG Export Plug-In . SVG Version: 6.00 Build 0)  -->
<svg version="1.1" id="Слой_1" xmlns="http://www.w3.org/2000/svg" xmlns:xlink="http://www.w3.org/1999/xlink" x="0px" y="0px"
	 viewBox="0 0 250 250" style="enable-background:new 0 0 250 250;" xml:space="preserve">
<style type="text/css">
	.st0{fill:url(#SVGID_1_);}
	.st1{fill:url(#SVGID_2_);}
</style>
<linearGradient id="SVGID_1_" gradientUnits="userSpaceOnUse" x1="-912.6093" y1="961.1135" x2="897.8179" y2="-497.7427" gradientTransform="matrix(1 0 0 -1 0 250)">
	<stop  offset="0" style="stop-color:#FA247C"/>
	<stop  offset="2.382660e-02" style="stop-color:#FA3077"/>
	<stop  offset="6.677425e-02" style="stop-color:#F94F6B"/>
	<stop  offset="0.1239" style="stop-color:#F88357"/>
	<stop  offset="0.1923" style="stop-color:#F6C83C"/>
	<stop  offset="0.2282" style="stop-color:#F5F02D"/>
	<stop  offset="0.2541" style="stop-color:#F5E932"/>
	<stop  offset="0.2915" style="stop-color:#F6D63F"/>
	<stop  offset="0.3358" style="stop-color:#F8B754"/>
	<stop  offset="0.3851" style="stop-color:#FA8B71"/>
	<stop  offset="0.4107" style="stop-color:#FB7282"/>
	<stop  offset="0.5496" style="stop-color:#AE20F2"/>
	<stop  offset="0.7282" style="stop-color:#60C0D2"/>
	<stop  offset="0.748" style="stop-color:#77B1BE"/>
	<stop  offset="0.7965" style="stop-color:#9A8BAD"/>
	<stop  offset="0.861" style="stop-color:#C35E99"/>
	<stop  offset="0.9188" style="stop-color:#E03E8B"/>
	<stop  offset="0.9671" style="stop-color:#F22A82"/>
	<stop  offset="1" style="stop-color:#F9237F"/>
</linearGradient>
<path class="st0" d="M125,250C56.1,250,0,193.9,0,125S56.1,0,125,0s125,56.1,125,125S193.9,250,125,250z M125,11.2
	c-62.7,0-113.7,51-113.7,113.7s51,113.7,113.7,113.7s113.7-51,113.7-113.7S187.7,11.2,125,11.2z"/>
<linearGradient id="SVGID_2_" gradientUnits="userSpaceOnUse" x1="-905.0113" y1="970.5424" x2="905.416" y2="-488.3138" gradientTransform="matrix(1 0 0 -1 0 250)">
	<stop  offset="0" style="stop-color:#FA247C"/>
	<stop  offset="2.382660e-02" style="stop-color:#FA3077"/>
	<stop  offset="6.677425e-02" style="stop-color:#F94F6B"/>
	<stop  offset="0.1239" style="stop-color:#F88357"/>
	<stop  offset="0.1923" style="stop-color:#F6C83C"/>
	<stop  offset="0.2282" style="stop-color:#F5F02D"/>
	<stop  offset="0.2541" style="stop-color:#F5E932"/>
	<stop  offset="0.2915" style="stop-color:#F6D63F"/>
	<stop  offset="0.3358" style="stop-color:#F8B754"/>
	<stop  offset="0.3851" style="stop-color:#FA8B71"/>
	<stop  offset="0.4107" style="stop-color:#FB7282"/>
	<stop  offset="0.5496" style="stop-color:#AE20F2"/>
	<stop  offset="0.7282" style="stop-color:#60C0D2"/>
	<stop  offset="0.748" style="stop-color:#77B1BE"/>
	<stop  offset="0.7965" style="stop-color:#9A8BAD"/>
	<stop  offset="0.861" style="stop-color:#C35E99"/>
	<stop  offset="0.9188" style="stop-color:#E03E8B"/>
	<stop  offset="0.9671" style="stop-color:#F22A82"/>
	<stop  offset="1" style="stop-color:#F9237F"/>
</linearGradient>
<path class="st1" d="M138.9,104.3V87.6h38.3V62.1H72.9v25.5h38.3v16.7c-31.2,1.4-54.6,7.6-54.6,14.9c0,7.4,23.4,13.5,54.6,14.9v53.6
	h27.6v-53.6c31-1.4,54.4-7.6,54.4-14.9C193.3,111.9,169.9,105.7,138.9,104.3 M138.9,129.7L138.9,129.7c-0.8,0-4.8,0.2-13.8,0.2
	c-7.2,0-12.2-0.2-14-0.4l0,0c-27.5-1.2-48-6-48-11.8s20.6-10.5,48-11.8v18.7c1.8,0.1,6.9,0.5,14.1,0.5c8.6,0,12.8-0.4,13.6-0.5
	v-18.7c27.4,1.2,48,6,48,11.8C186.9,123.7,166.4,128.5,138.9,129.7"/>
<title>bcn</title>
</svg>
