<?xml version="1.0" encoding="utf-8"?>
<!-- Generator: Adobe Illustrator 21.1.0, SVG Export Plug-In . SVG Version: 6.00 Build 0)  -->
<svg version="1.1" id="Слой_1" xmlns="http://www.w3.org/2000/svg" xmlns:xlink="http://www.w3.org/1999/xlink" x="0px" y="0px"
	 viewBox="0 0 250 250" style="enable-background:new 0 0 250 250;" xml:space="preserve">
<style type="text/css">
	.st0{fill:url(#SVGID_1_);}
</style>
<linearGradient id="SVGID_1_" gradientUnits="userSpaceOnUse" x1="-642.5591" y1="743.5051" x2="1167.8687" y2="-715.3516" gradientTransform="matrix(1 0 0 -1 0 250)">
	<stop  offset="0" style="stop-color:#FA247C"/>
	<stop  offset="2.382660e-02" style="stop-color:#FA3077"/>
	<stop  offset="6.677425e-02" style="stop-color:#F94F6B"/>
	<stop  offset="0.1239" style="stop-color:#F88357"/>
	<stop  offset="0.1923" style="stop-color:#F6C83C"/>
	<stop  offset="0.2282" style="stop-color:#F5F02D"/>
	<stop  offset="0.2541" style="stop-color:#F5E932"/>
	<stop  offset="0.2915" style="stop-color:#F6D63F"/>
	<stop  offset="0.3358" style="stop-color:#F8B754"/>
	<stop  offset="0.3851" style="stop-color:#FA8B71"/>
	<stop  offset="0.4107" style="stop-color:#FB7282"/>
	<stop  offset="0.5496" style="stop-color:#AE20F2"/>
	<stop  offset="0.7282" style="stop-color:#60C0D2"/>
	<stop  offset="0.748" style="stop-color:#77B1BE"/>
	<stop  offset="0.7965" style="stop-color:#9A8BAD"/>
	<stop  offset="0.861" style="stop-color:#C35E99"/>
	<stop  offset="0.9188" style="stop-color:#E03E8B"/>
	<stop  offset="0.9671" style="stop-color:#F22A82"/>
	<stop  offset="1" style="stop-color:#F9237F"/>
</linearGradient>
<path class="st0" d="M125,0C56.1,0,0,56.1,0,125s56.1,125,125,125s125-56.1,125-125C250,56.1,193.9,0,125,0z M217.9,59.5
	c-29.3,42-87.4,125-90.9,129.1c-0.5,0.6-1.5,1.6-2.4,1.5c-0.6,0-1.9-0.5-4-3.4c-1.9-2.5-8.9-11.9-12-15.9l12.7-18.2l7.6-11.1l0,0
	l71-101.8C206.8,45.6,212.8,52.3,217.9,59.5z M104.5,165.3c-8.9-11.8-24.7-32.7-35-46.3l-5.9-7.9h33.9l23.5,30.6L104.5,165.3z
	 M125,238.7c-62.7,0-113.7-51-113.7-113.7S62.3,11.3,125,11.3c26.5,0,50.8,9.1,70.1,24.3l-70.2,100.5l-24.2-31.5H64.1h-5.5h-3.2
	l-17.5,19.8h27.3c11.5,15.3,28.9,38.5,36.8,48.6l0,0c0.6,0.8,11.1,14.7,13.4,17.8c1.9,2.5,4.8,5.9,9.1,6c0.1,0,0.2,0,0.2,0
	c2.6,0,5.1-1.3,7.3-3.9c4.1-4.8,68.1-96.3,89.7-127.5c10.7,17.3,16.8,37.7,16.8,59.5C238.7,187.7,187.7,238.7,125,238.7z
	 M60.3,117.8h-7.6l4.1-4.7C57.7,114.4,58.9,115.9,60.3,117.8z"/>
<title>bcn</title>
</svg>
