<?xml version="1.0" encoding="utf-8"?>
<!-- Generator: Adobe Illustrator 21.1.0, SVG Export Plug-In . SVG Version: 6.00 Build 0)  -->
<svg version="1.1" id="Слой_1" xmlns="http://www.w3.org/2000/svg" xmlns:xlink="http://www.w3.org/1999/xlink" x="0px" y="0px"
	 viewBox="0 0 250 250" style="enable-background:new 0 0 250 250;" xml:space="preserve">
<style type="text/css">
	.st0{fill:url(#SVGID_1_);}
	.st1{fill:url(#SVGID_2_);}
</style>
<g>
	
		<linearGradient id="SVGID_1_" gradientUnits="userSpaceOnUse" x1="-485.6149" y1="617.0381" x2="1324.8124" y2="-841.8181" gradientTransform="matrix(1 0 0 -1 0 250)">
		<stop  offset="0" style="stop-color:#FA247C"/>
		<stop  offset="2.382660e-02" style="stop-color:#FA3077"/>
		<stop  offset="6.677425e-02" style="stop-color:#F94F6B"/>
		<stop  offset="0.1239" style="stop-color:#F88357"/>
		<stop  offset="0.1923" style="stop-color:#F6C83C"/>
		<stop  offset="0.2282" style="stop-color:#F5F02D"/>
		<stop  offset="0.2541" style="stop-color:#F5E932"/>
		<stop  offset="0.2915" style="stop-color:#F6D63F"/>
		<stop  offset="0.3358" style="stop-color:#F8B754"/>
		<stop  offset="0.3851" style="stop-color:#FA8B71"/>
		<stop  offset="0.4107" style="stop-color:#FB7282"/>
		<stop  offset="0.5496" style="stop-color:#AE20F2"/>
		<stop  offset="0.7282" style="stop-color:#60C0D2"/>
		<stop  offset="0.748" style="stop-color:#77B1BE"/>
		<stop  offset="0.7965" style="stop-color:#9A8BAD"/>
		<stop  offset="0.861" style="stop-color:#C35E99"/>
		<stop  offset="0.9188" style="stop-color:#E03E8B"/>
		<stop  offset="0.9671" style="stop-color:#F22A82"/>
		<stop  offset="1" style="stop-color:#F9237F"/>
	</linearGradient>
	<path class="st0" d="M125,250C56.1,250,0,193.9,0,125S56.1,0,125,0s125,56.1,125,125S193.9,250,125,250z M125,11.3
		c-62.7,0-113.7,51-113.7,113.7s51,113.7,113.7,113.7s113.7-51,113.7-113.7C238.7,62.3,187.7,11.3,125,11.3z"/>
</g>
<g>
	
		<linearGradient id="SVGID_2_" gradientUnits="userSpaceOnUse" x1="-480.6222" y1="623.2341" x2="1329.8051" y2="-835.6221" gradientTransform="matrix(1 0 0 -1 0 250)">
		<stop  offset="0" style="stop-color:#FA247C"/>
		<stop  offset="2.382660e-02" style="stop-color:#FA3077"/>
		<stop  offset="6.677425e-02" style="stop-color:#F94F6B"/>
		<stop  offset="0.1239" style="stop-color:#F88357"/>
		<stop  offset="0.1923" style="stop-color:#F6C83C"/>
		<stop  offset="0.2282" style="stop-color:#F5F02D"/>
		<stop  offset="0.2541" style="stop-color:#F5E932"/>
		<stop  offset="0.2915" style="stop-color:#F6D63F"/>
		<stop  offset="0.3358" style="stop-color:#F8B754"/>
		<stop  offset="0.3851" style="stop-color:#FA8B71"/>
		<stop  offset="0.4107" style="stop-color:#FB7282"/>
		<stop  offset="0.5496" style="stop-color:#AE20F2"/>
		<stop  offset="0.7282" style="stop-color:#60C0D2"/>
		<stop  offset="0.748" style="stop-color:#77B1BE"/>
		<stop  offset="0.7965" style="stop-color:#9A8BAD"/>
		<stop  offset="0.861" style="stop-color:#C35E99"/>
		<stop  offset="0.9188" style="stop-color:#E03E8B"/>
		<stop  offset="0.9671" style="stop-color:#F22A82"/>
		<stop  offset="1" style="stop-color:#F9237F"/>
	</linearGradient>
	<path class="st1" d="M197.3,81.5l-0.5-2l-1.8-1.1C193.9,77.7,165,60,125,60S56.1,77.7,54.9,78.4l-1.8,1.1l-0.5,2
		c-0.1,0.6-0.6,2.6,1.3,21.6c1.9,19.6,10.2,40.2,24.7,61c18.1,26,43,39,44.1,39.5l2.2,1.2l2.2-1.2c1.1-0.6,26-13.5,44.1-39.5
		c14.5-20.8,22.8-41.4,24.7-61C197.8,84.1,197.4,82.1,197.3,81.5z M125,69.5c7.1,0,13.6,0.6,19.9,1.6c-4.7,1.4-9.6,3.8-13.5,7.6
		c-8.1,8-10.5,17.3-10.8,28.1l0,0c0,0,0,0,0,0.1c0,1.5-0.1,2.7-0.2,4.2c-0.2,2.2-0.7,3.5-1.1,4.4c-1.4,3.8-3.8,6.6-6.9,9.4
		c-3.2,2.8-7.1,4.6-10.9,6c-2.6,0.8-5.6,1.3-9.2,1.3c-13.8,0-21.6-7.8-24.9-12.2c-1.9-6-3.1-12-3.6-17.9c-0.9-9.5-1.3-14.5-1.4-16.9
		C69.5,81.3,93.8,69.5,125,69.5z M125,193.9c-6.2-3.6-24.7-15.5-38.3-35.3c-6.5-9.4-11.6-18.6-15.4-27.8c4.9,3.5,11.9,6.5,20.9,6.5
		c8.6,0,14.1-2.6,18.9-4.8c7.2-3.4,12.8-6,27.2,1.1c7.8,3.8,12.3,9.8,13.8,17.8c2,11.2-5.2,26.1-5.2,26.1
		C137.1,186.9,129.1,191.6,125,193.9z M186.5,102.2c-1.8,18-9.5,37-23,56.6c-2.2,3.2-4.6,6.2-7.1,9.1c1.2-4.7,1.9-10.5,1.1-16.1
		c-1.3-9.1-6.1-16.3-13.9-21c-0.1-0.1-0.4-0.2-0.6-0.4c-6.9-4.2-10.7-9.5-12.5-12.5c-1.8-3.1-5.1-10.6-3.8-18.7
		c1.1-6.7,3.5-11.9,8.2-16.6c8.2-8.1,22.6-8.2,24.6-8.2c13.9,3.8,24,8.7,28.3,11.1C187.7,87.7,187.4,92.7,186.5,102.2z"/>
</g>
<title>bcn</title>
</svg>
