<?xml version="1.0" encoding="utf-8"?>
<!-- Generator: Adobe Illustrator 21.1.0, SVG Export Plug-In . SVG Version: 6.00 Build 0)  -->
<svg version="1.1" id="Слой_1" xmlns="http://www.w3.org/2000/svg" xmlns:xlink="http://www.w3.org/1999/xlink" x="0px" y="0px"
	 viewBox="0 0 250 250" style="enable-background:new 0 0 250 250;" xml:space="preserve">
<style type="text/css">
	.st0{fill:url(#SVGID_1_);}
	.st1{fill:url(#SVGID_2_);}
	.st2{fill:url(#SVGID_3_);}
</style>
<linearGradient id="SVGID_1_" gradientUnits="userSpaceOnUse" x1="-799.5004" y1="869.9694" x2="1010.9275" y2="-588.8871" gradientTransform="matrix(1 0 0 -1 0 250)">
	<stop  offset="0" style="stop-color:#FA247C"/>
	<stop  offset="2.382660e-02" style="stop-color:#FA3077"/>
	<stop  offset="6.677425e-02" style="stop-color:#F94F6B"/>
	<stop  offset="0.1239" style="stop-color:#F88357"/>
	<stop  offset="0.1923" style="stop-color:#F6C83C"/>
	<stop  offset="0.2282" style="stop-color:#F5F02D"/>
	<stop  offset="0.2541" style="stop-color:#F5E932"/>
	<stop  offset="0.2915" style="stop-color:#F6D63F"/>
	<stop  offset="0.3358" style="stop-color:#F8B754"/>
	<stop  offset="0.3851" style="stop-color:#FA8B71"/>
	<stop  offset="0.4107" style="stop-color:#FB7282"/>
	<stop  offset="0.5496" style="stop-color:#AE20F2"/>
	<stop  offset="0.7282" style="stop-color:#60C0D2"/>
	<stop  offset="0.748" style="stop-color:#77B1BE"/>
	<stop  offset="0.7965" style="stop-color:#9A8BAD"/>
	<stop  offset="0.861" style="stop-color:#C35E99"/>
	<stop  offset="0.9188" style="stop-color:#E03E8B"/>
	<stop  offset="0.9671" style="stop-color:#F22A82"/>
	<stop  offset="1" style="stop-color:#F9237F"/>
</linearGradient>
<path class="st0" d="M125,250C56.1,250,0,193.9,0,125S56.1,0,125,0s125,56.1,125,125S193.9,250,125,250z M125,11.2
	c-62.7,0-113.7,51-113.7,113.7s51,113.7,113.7,113.7s113.7-51,113.7-113.7S187.7,11.2,125,11.2z"/>
<linearGradient id="SVGID_2_" gradientUnits="userSpaceOnUse" x1="-794.0436" y1="876.7415" x2="1016.3843" y2="-582.1152" gradientTransform="matrix(1 0 0 -1 0 250)">
	<stop  offset="0" style="stop-color:#FA247C"/>
	<stop  offset="2.382660e-02" style="stop-color:#FA3077"/>
	<stop  offset="6.677425e-02" style="stop-color:#F94F6B"/>
	<stop  offset="0.1239" style="stop-color:#F88357"/>
	<stop  offset="0.1923" style="stop-color:#F6C83C"/>
	<stop  offset="0.2282" style="stop-color:#F5F02D"/>
	<stop  offset="0.2541" style="stop-color:#F5E932"/>
	<stop  offset="0.2915" style="stop-color:#F6D63F"/>
	<stop  offset="0.3358" style="stop-color:#F8B754"/>
	<stop  offset="0.3851" style="stop-color:#FA8B71"/>
	<stop  offset="0.4107" style="stop-color:#FB7282"/>
	<stop  offset="0.5496" style="stop-color:#AE20F2"/>
	<stop  offset="0.7282" style="stop-color:#60C0D2"/>
	<stop  offset="0.748" style="stop-color:#77B1BE"/>
	<stop  offset="0.7965" style="stop-color:#9A8BAD"/>
	<stop  offset="0.861" style="stop-color:#C35E99"/>
	<stop  offset="0.9188" style="stop-color:#E03E8B"/>
	<stop  offset="0.9671" style="stop-color:#F22A82"/>
	<stop  offset="1" style="stop-color:#F9237F"/>
</linearGradient>
<path class="st1" d="M189.1,80.2c-0.5-23.5-6.5-33.4-7.3-34.1c-0.7-0.6-3.4-1.2-18.9,0.9c-15.5,2.1-33.9,10.6-43.6,22
	c-9.6,11.4-20.7,35.9-23.2,36.2s-13.8,0-24,3.6c-10.1,3.6-19.5,14.2-26,21.5c-0.9,1.1-1.1,1.9,0,2.5c1.1,0.6,4-1.2,12.9-1.6
	c8.9-0.5,20.6,3.8,20.7,4.4c0.1,0.6,0,0.7-1.5,2.6c-1.5,1.8-2.2,6.5,1.4,9.5c0.8,0.7,3.2,2.5,6.3,4.7c-1.5,1.6-4.8,5.8-7.6,12.8
	c-3.6,9.2-4.5,21.2,2,26.1c2,1.5,4.4,2.2,7.1,2.2c5.3,0,11.6-3.1,18.1-8.9c5.5-5.1,8.1-9.2,9.3-11.8c1.8,1.3,3.2,2.2,3.8,2.6
	c3.8,2.6,8,2.5,9.9,0.8c1.8-1.6,3.8-4.1,4.7-4.1s6.9,8.6,10.2,16.8c3.3,8.2,2.7,14.8,3.4,15.1c0.7,0.2,4.7-5.9,6.9-10.8
	c2.2-4.9,6.2-11.3,6.6-25.3c0.2-14-5.5-21.4-5.5-21.4s19.6-22.7,23.4-28.2C182,113.1,189.4,103.7,189.1,80.2z M103.4,182.3
	c-8.3,7.5-16.1,10-20.7,6.5c-4.9-3.6-4.1-14-0.9-22.2c2.8-7.2,6.1-10.9,7.2-12c0.8,0.6,1.8,1.3,2.6,1.9c-0.9,1.2-2.2,3.2-3.3,5.9
	c-2.1,5.3-2.5,12,1.3,14.9c1.3,0.9,2.7,1.4,4.2,1.4c3.1,0,6.6-1.8,10.2-5.1c2.2-2,3.6-3.8,4.5-5.2c1.3,0.9,2.5,1.8,3.6,2.6
	C111.2,173.1,109,177.1,103.4,182.3z M105.7,166.5c-0.7,1.1-1.9,2.7-4,4.6c-4.1,3.8-8,5.1-10.1,3.4c-2-1.5-2.1-6.2-0.2-10.9
	c0.9-2.5,2.1-4.2,2.8-5.2C98.1,161.1,102.1,163.9,105.7,166.5z M128.6,169.9c-4.2,4.6-6.1,2.2-11.4-1.4c-5.3-3.8-28.3-20-32.1-22.5
	c-3.8-2.6-2.5-6.2,0.9-12c3.4-5.6,27.6-49.5,33.7-58.4c6.2-8.9,17.9-16,29.3-19.9c11.4-3.9,27.6-6.3,29.9-4.9
	c0.9,0.6,5.4,17.8,5.2,30.5c-0.2,12.6-2.4,25.4-13.5,38.9C159.8,133.5,133,165.3,128.6,169.9z"/>
<linearGradient id="SVGID_3_" gradientUnits="userSpaceOnUse" x1="-776.5317" y1="898.4735" x2="1033.8961" y2="-560.3831" gradientTransform="matrix(1 0 0 -1 0 250)">
	<stop  offset="0" style="stop-color:#FA247C"/>
	<stop  offset="2.382660e-02" style="stop-color:#FA3077"/>
	<stop  offset="6.677425e-02" style="stop-color:#F94F6B"/>
	<stop  offset="0.1239" style="stop-color:#F88357"/>
	<stop  offset="0.1923" style="stop-color:#F6C83C"/>
	<stop  offset="0.2282" style="stop-color:#F5F02D"/>
	<stop  offset="0.2541" style="stop-color:#F5E932"/>
	<stop  offset="0.2915" style="stop-color:#F6D63F"/>
	<stop  offset="0.3358" style="stop-color:#F8B754"/>
	<stop  offset="0.3851" style="stop-color:#FA8B71"/>
	<stop  offset="0.4107" style="stop-color:#FB7282"/>
	<stop  offset="0.5496" style="stop-color:#AE20F2"/>
	<stop  offset="0.7282" style="stop-color:#60C0D2"/>
	<stop  offset="0.748" style="stop-color:#77B1BE"/>
	<stop  offset="0.7965" style="stop-color:#9A8BAD"/>
	<stop  offset="0.861" style="stop-color:#C35E99"/>
	<stop  offset="0.9188" style="stop-color:#E03E8B"/>
	<stop  offset="0.9671" style="stop-color:#F22A82"/>
	<stop  offset="1" style="stop-color:#F9237F"/>
</linearGradient>
<path class="st2" d="M145.1,73.1c-11.6,0-21,9.4-21,21s9.4,21,21,21s21-9.4,21-21S156.7,73.1,145.1,73.1z M145.1,109.4
	c-8.3,0-15.1-6.8-15.1-15.1c0-8.3,6.8-15.1,15.1-15.1c8.3,0,15.1,6.8,15.1,15.1S153.5,109.4,145.1,109.4z"/>
<title>bcn</title>
</svg>
