<?xml version="1.0" encoding="utf-8"?>
<!-- Generator: Adobe Illustrator 21.1.0, SVG Export Plug-In . SVG Version: 6.00 Build 0)  -->
<svg version="1.1" id="Слой_1" xmlns="http://www.w3.org/2000/svg" xmlns:xlink="http://www.w3.org/1999/xlink" x="0px" y="0px"
	 viewBox="0 0 250 250" style="enable-background:new 0 0 250 250;" xml:space="preserve">
<style type="text/css">
	.st0{fill:url(#SVGID_1_);}
</style>
<linearGradient id="SVGID_1_" gradientUnits="userSpaceOnUse" x1="-290.8146" y1="460.0666" x2="1519.6133" y2="-998.7901" gradientTransform="matrix(1 0 0 -1 0 250)">
	<stop  offset="0" style="stop-color:#FA247C"/>
	<stop  offset="2.382660e-02" style="stop-color:#FA3077"/>
	<stop  offset="6.677425e-02" style="stop-color:#F94F6B"/>
	<stop  offset="0.1239" style="stop-color:#F88357"/>
	<stop  offset="0.1923" style="stop-color:#F6C83C"/>
	<stop  offset="0.2282" style="stop-color:#F5F02D"/>
	<stop  offset="0.2541" style="stop-color:#F5E932"/>
	<stop  offset="0.2915" style="stop-color:#F6D63F"/>
	<stop  offset="0.3358" style="stop-color:#F8B754"/>
	<stop  offset="0.3851" style="stop-color:#FA8B71"/>
	<stop  offset="0.4107" style="stop-color:#FB7282"/>
	<stop  offset="0.5496" style="stop-color:#AE20F2"/>
	<stop  offset="0.7282" style="stop-color:#60C0D2"/>
	<stop  offset="0.748" style="stop-color:#77B1BE"/>
	<stop  offset="0.7965" style="stop-color:#9A8BAD"/>
	<stop  offset="0.861" style="stop-color:#C35E99"/>
	<stop  offset="0.9188" style="stop-color:#E03E8B"/>
	<stop  offset="0.9671" style="stop-color:#F22A82"/>
	<stop  offset="1" style="stop-color:#F9237F"/>
</linearGradient>
<path class="st0" d="M125,0C56.1,0,0,56.1,0,125s56.1,125,125,125s125-56.1,125-125S193.9,0,125,0z M125,11.3
	c62.7,0,113.7,51,113.7,113.7c0,9.1-1.1,18-3.2,26.5h-47.9V69.4l-62.8,63l-63.1-63v82.1H14.2c-2-8.5-3.2-17.4-3.2-26.5
	C11.2,62.3,62.2,11.3,125,11.3z M125,160.2l-42.8-42.6v52.6H20.6c-1.8-4-3.3-8.2-4.6-12.5h52V84.3l57,56.9l56.6-56.8v73.4h52.3
	c-1.3,4.1-2.7,8.2-4.5,12.2h-61.1v-53.2L125,160.2z M125,238.8c-44.3,0-82.8-25.5-101.5-62.4h64.9v-43.9l36.7,36.5l37.2-37.3v44.4
	h64.3C207.9,213.2,169.3,238.8,125,238.8z"/>
<title>bcn</title>
</svg>
