<?xml version="1.0" encoding="utf-8"?>
<!-- Generator: Adobe Illustrator 21.1.0, SVG Export Plug-In . SVG Version: 6.00 Build 0)  -->
<svg version="1.1" id="Слой_1" xmlns="http://www.w3.org/2000/svg" xmlns:xlink="http://www.w3.org/1999/xlink" x="0px" y="0px"
	 viewBox="0 0 250 250" style="enable-background:new 0 0 250 250;" xml:space="preserve">
<style type="text/css">
	.st0{fill:url(#SVGID_1_);}
	.st1{fill:url(#SVGID_2_);}
</style>
<linearGradient id="SVGID_1_" gradientUnits="userSpaceOnUse" x1="-449.4667" y1="587.9096" x2="1360.9612" y2="-870.9469" gradientTransform="matrix(1 0 0 -1 0 250)">
	<stop  offset="0" style="stop-color:#FA247C"/>
	<stop  offset="2.382660e-02" style="stop-color:#FA3077"/>
	<stop  offset="6.677425e-02" style="stop-color:#F94F6B"/>
	<stop  offset="0.1239" style="stop-color:#F88357"/>
	<stop  offset="0.1923" style="stop-color:#F6C83C"/>
	<stop  offset="0.2282" style="stop-color:#F5F02D"/>
	<stop  offset="0.2541" style="stop-color:#F5E932"/>
	<stop  offset="0.2915" style="stop-color:#F6D63F"/>
	<stop  offset="0.3358" style="stop-color:#F8B754"/>
	<stop  offset="0.3851" style="stop-color:#FA8B71"/>
	<stop  offset="0.4107" style="stop-color:#FB7282"/>
	<stop  offset="0.5496" style="stop-color:#AE20F2"/>
	<stop  offset="0.7282" style="stop-color:#60C0D2"/>
	<stop  offset="0.748" style="stop-color:#77B1BE"/>
	<stop  offset="0.7965" style="stop-color:#9A8BAD"/>
	<stop  offset="0.861" style="stop-color:#C35E99"/>
	<stop  offset="0.9188" style="stop-color:#E03E8B"/>
	<stop  offset="0.9671" style="stop-color:#F22A82"/>
	<stop  offset="1" style="stop-color:#F9237F"/>
</linearGradient>
<path class="st0" d="M125,250C56.1,250,0,193.9,0,125S56.1,0,125,0s125,56.1,125,125S193.9,250,125,250z M125,11.3
	c-62.7,0-113.7,51-113.7,113.7s51,113.7,113.7,113.7s113.7-51,113.7-113.7S187.7,11.3,125,11.3z"/>
<linearGradient id="SVGID_2_" gradientUnits="userSpaceOnUse" x1="-444.6566" y1="593.879" x2="1365.7714" y2="-864.9777" gradientTransform="matrix(1 0 0 -1 0 250)">
	<stop  offset="0" style="stop-color:#FA247C"/>
	<stop  offset="2.382660e-02" style="stop-color:#FA3077"/>
	<stop  offset="6.677425e-02" style="stop-color:#F94F6B"/>
	<stop  offset="0.1239" style="stop-color:#F88357"/>
	<stop  offset="0.1923" style="stop-color:#F6C83C"/>
	<stop  offset="0.2282" style="stop-color:#F5F02D"/>
	<stop  offset="0.2541" style="stop-color:#F5E932"/>
	<stop  offset="0.2915" style="stop-color:#F6D63F"/>
	<stop  offset="0.3358" style="stop-color:#F8B754"/>
	<stop  offset="0.3851" style="stop-color:#FA8B71"/>
	<stop  offset="0.4107" style="stop-color:#FB7282"/>
	<stop  offset="0.5496" style="stop-color:#AE20F2"/>
	<stop  offset="0.7282" style="stop-color:#60C0D2"/>
	<stop  offset="0.748" style="stop-color:#77B1BE"/>
	<stop  offset="0.7965" style="stop-color:#9A8BAD"/>
	<stop  offset="0.861" style="stop-color:#C35E99"/>
	<stop  offset="0.9188" style="stop-color:#E03E8B"/>
	<stop  offset="0.9671" style="stop-color:#F22A82"/>
	<stop  offset="1" style="stop-color:#F9237F"/>
</linearGradient>
<path class="st1" d="M147,195c-5.4,0-10.8-1.4-15.8-4.4c-9.6-5.6-15.6-16.1-15.6-27.3c0-5.5,1.5-11.3,4.6-16.7
	c1.6-3.4,0.5-7.9-2.8-9.9c-2.1-1.2-4.1-1.4-6-0.6c-1.8,0.7-3.1,2.2-3.8,3.4c-3.1,5.5-7.3,10-12.2,12.7c-9.8,5.8-21.5,5.8-31.4,0
	c-9.6-5.6-15.6-16.1-15.6-27.3s6-21.6,15.6-27.3c9.9-5.8,21.6-5.8,31.5,0c5.6,3.8,9.5,8.5,12.3,12.2l0.2,0.4
	c0.9,1.6,2.6,2.9,4.5,3.4c1.9,0.5,3.8,0.4,5.3-0.6c2.4-1.2,3.4-2.6,3.8-4.6c0.2-1.6-0.1-3.6-1.1-5.4c-3.4-6-5.1-11.4-5.1-16.6
	c0-11.2,6-21.6,15.6-27.3c4.2-2.7,9.8-4.1,15.6-4.1c0.1,0,0.1,0,0.2,0c5.9,0,11.5,1.5,15.8,4.1c9.6,5.6,15.6,16.1,15.6,27.3
	s-6,21.6-15.6,27.3c-4.8,2.7-10.9,4.1-17.3,4.1c-4.1,0-7.1,2.9-7.1,7.1c0,6.9,6.7,7.1,7.1,7.1c6.7,0,12.3,1.3,17.2,4
	c9.8,5.8,15.8,16.2,15.8,27.4s-6,21.6-15.6,27.3C157.8,193.6,152.4,195,147,195z M113.7,128.3c2.2,0,4.7,0.6,7.4,2.1
	c6.7,4,9.2,12.7,5.6,19.8c-2.5,4.5-3.8,8.9-3.8,13.2c0,8.6,4.6,16.6,12,20.9c7.6,4.5,16.3,4.5,23.9,0c7.4-4.4,12-12.3,12-20.9
	c0-8.6-4.6-16.6-12-20.9c-3.6-2-8.1-3.1-13.5-3.1c-7.1,0-14.5-5.1-14.5-14.5c0-8.2,6.2-14.5,14.5-14.5c5.2,0,10-1.1,13.5-3.2
	c7.3-4.4,12-12.3,12-20.8c0-8.6-4.6-16.6-12-20.9c-3.2-2-7.4-3.1-12.1-3.1c-4.4,0-8.7,1.1-11.8,2.9h-0.1c-7.4,4.4-12,12.3-12,20.9
	c0,3.8,1.4,8,4.1,13.1c3.3,6.7,2.9,15.8-5.6,20c-3.1,1.9-7.1,2.4-10.9,1.3c-3.6-1.1-6.7-3.4-8.7-6.6c-2.5-3.3-5.8-7.3-10.2-10.2
	c-7.4-4.4-16.1-4.4-23.8,0.1c-7.4,4.4-12,12.3-12,20.9s4.6,16.6,12,20.9c7.6,4.5,16.3,4.5,23.9,0c3.8-2.1,6.9-5.5,9.4-9.9
	c0.8-1.4,3.1-4.8,7.3-6.6C109.8,128.8,111.6,128.3,113.7,128.3z"/>
<title>bcn</title>
</svg>
