<?xml version="1.0" encoding="utf-8"?>
<!-- Generator: Adobe Illustrator 21.1.0, SVG Export Plug-In . SVG Version: 6.00 Build 0)  -->
<svg version="1.1" id="Слой_1" xmlns="http://www.w3.org/2000/svg" xmlns:xlink="http://www.w3.org/1999/xlink" x="0px" y="0px"
	 viewBox="0 0 250 250" style="enable-background:new 0 0 250 250;" xml:space="preserve">
<style type="text/css">
	.st0{fill:url(#SVGID_1_);}
	.st1{fill:url(#SVGID_2_);}
</style>
<linearGradient id="SVGID_1_" gradientUnits="userSpaceOnUse" x1="-755.6262" y1="834.6154" x2="1054.8018" y2="-624.2413" gradientTransform="matrix(1 0 0 -1 0 250)">
	<stop  offset="0" style="stop-color:#FA247C"/>
	<stop  offset="2.382660e-02" style="stop-color:#FA3077"/>
	<stop  offset="6.677425e-02" style="stop-color:#F94F6B"/>
	<stop  offset="0.1239" style="stop-color:#F88357"/>
	<stop  offset="0.1923" style="stop-color:#F6C83C"/>
	<stop  offset="0.2282" style="stop-color:#F5F02D"/>
	<stop  offset="0.2541" style="stop-color:#F5E932"/>
	<stop  offset="0.2915" style="stop-color:#F6D63F"/>
	<stop  offset="0.3358" style="stop-color:#F8B754"/>
	<stop  offset="0.3851" style="stop-color:#FA8B71"/>
	<stop  offset="0.4107" style="stop-color:#FB7282"/>
	<stop  offset="0.5496" style="stop-color:#AE20F2"/>
	<stop  offset="0.7282" style="stop-color:#60C0D2"/>
	<stop  offset="0.748" style="stop-color:#77B1BE"/>
	<stop  offset="0.7965" style="stop-color:#9A8BAD"/>
	<stop  offset="0.861" style="stop-color:#C35E99"/>
	<stop  offset="0.9188" style="stop-color:#E03E8B"/>
	<stop  offset="0.9671" style="stop-color:#F22A82"/>
	<stop  offset="1" style="stop-color:#F9237F"/>
</linearGradient>
<path class="st0" d="M125,250C56.1,250,0,193.9,0,125S56.1,0,125,0s125,56.1,125,125S193.9,250,125,250z M125,11.3
	c-62.7,0-113.7,51-113.7,113.7s51,113.7,113.7,113.7s113.7-51,113.7-113.7S187.7,11.3,125,11.3z"/>
<linearGradient id="SVGID_2_" gradientUnits="userSpaceOnUse" x1="-755.465" y1="834.8154" x2="1054.9629" y2="-624.0413" gradientTransform="matrix(1 0 0 -1 0 250)">
	<stop  offset="0" style="stop-color:#FA247C"/>
	<stop  offset="2.382660e-02" style="stop-color:#FA3077"/>
	<stop  offset="6.677425e-02" style="stop-color:#F94F6B"/>
	<stop  offset="0.1239" style="stop-color:#F88357"/>
	<stop  offset="0.1923" style="stop-color:#F6C83C"/>
	<stop  offset="0.2282" style="stop-color:#F5F02D"/>
	<stop  offset="0.2541" style="stop-color:#F5E932"/>
	<stop  offset="0.2915" style="stop-color:#F6D63F"/>
	<stop  offset="0.3358" style="stop-color:#F8B754"/>
	<stop  offset="0.3851" style="stop-color:#FA8B71"/>
	<stop  offset="0.4107" style="stop-color:#FB7282"/>
	<stop  offset="0.5496" style="stop-color:#AE20F2"/>
	<stop  offset="0.7282" style="stop-color:#60C0D2"/>
	<stop  offset="0.748" style="stop-color:#77B1BE"/>
	<stop  offset="0.7965" style="stop-color:#9A8BAD"/>
	<stop  offset="0.861" style="stop-color:#C35E99"/>
	<stop  offset="0.9188" style="stop-color:#E03E8B"/>
	<stop  offset="0.9671" style="stop-color:#F22A82"/>
	<stop  offset="1" style="stop-color:#F9237F"/>
</linearGradient>
<path class="st1" d="M141.8,202.7h-32.5V182H78.8v-3.3c0-2.4-0.1-4.6-0.1-6.9c-0.2-5.8-0.5-11.9,0.7-17.6c0.7-3.8,3.6-6.9,6.2-9.6
	c0.9-0.9,1.9-2,2.6-2.9c9.4-11.2,18.5-21.6,29.4-34.2c2.2-2.5,4.4-4.8,6.6-7.3c0.1-0.2,0.4-0.4,0.5-0.6H81.1V68h28.2V47.2h31.3v20.3
	h30.8v3.3c0,2.4,0.1,4.8,0.1,7.2c0.2,5.9,0.5,11.9-0.7,17.8c-0.7,4-3.9,7.2-6.7,10.1c-0.8,0.9-1.8,1.8-2.5,2.6
	c-9.5,11.3-18.9,22.1-29.3,34.1c-2.2,2.7-4.5,5.2-6.8,7.8h45.3v31.5h-30.3c0.1,2.4,0.2,4.6,0.4,6.9c0.2,3.4,0.4,6.8,0.6,10.5
	L141.8,202.7z M115.8,196.1h18.9c-0.1-2.4-0.2-4.7-0.4-6.9c-0.2-3.4-0.4-6.8-0.6-10.3l-0.2-3.5h30.8V157h-54l5.3-5.5
	c4.5-4.7,8.1-8.6,11.8-13.1c10.3-12,19.8-22.8,29.3-34.1c0.8-0.9,1.8-2,2.7-2.9c2.2-2.4,4.6-4.7,4.9-6.7c1.1-5.1,0.8-10.5,0.6-16.2
	c0-1.3-0.1-2.7-0.1-4.1h-30.8V53.9h-18.1v20.8H87.7V93h51.5l-4.9,5.5c-1.9,2.1-3.8,4.1-5.5,6c-2.2,2.5-4.4,4.7-6.5,7.2
	c-10.8,12.6-19.9,23-29.2,34.1c-0.8,1.1-1.9,2.1-2.8,3.3c-2.1,2.2-4.2,4.5-4.6,6.5c-1.1,5.1-0.8,10.5-0.6,16.1
	c0,1.3,0.1,2.6,0.1,3.9h30.6L115.8,196.1L115.8,196.1z"/>
<title>bcn</title>
</svg>
