<?xml version="1.0" encoding="UTF-8" standalone="no"?>
<!-- Generator: Adobe Illustrator 19.0.0, SVG Export Plug-In . SVG Version: 6.00 Build 0)  -->

<svg
   xmlns:dc="http://purl.org/dc/elements/1.1/"
   xmlns:cc="http://creativecommons.org/ns#"
   xmlns:rdf="http://www.w3.org/1999/02/22-rdf-syntax-ns#"
   xmlns:svg="http://www.w3.org/2000/svg"
   xmlns="http://www.w3.org/2000/svg"
   xmlns:sodipodi="http://sodipodi.sourceforge.net/DTD/sodipodi-0.dtd"
   xmlns:inkscape="http://www.inkscape.org/namespaces/inkscape"
   version="1.1"
   id="Layer_1"
   x="0px"
   y="0px"
   viewBox="0 0 512 512"
   style="enable-background:new 0 0 512 512;"
   xml:space="preserve"
   sodipodi:docname="icon.svg"
   inkscape:version="0.92.4 (5da689c313, 2019-01-14)"><metadata
   id="metadata910"><rdf:RDF><cc:Work
       rdf:about=""><dc:format>image/svg+xml</dc:format><dc:type
         rdf:resource="http://purl.org/dc/dcmitype/StillImage" /><dc:title></dc:title></cc:Work></rdf:RDF></metadata><defs
   id="defs908" /><sodipodi:namedview
   pagecolor="#ffffff"
   bordercolor="#666666"
   borderopacity="1"
   objecttolerance="10"
   gridtolerance="10"
   guidetolerance="10"
   inkscape:pageopacity="0"
   inkscape:pageshadow="2"
   inkscape:window-width="3840"
   inkscape:window-height="2081"
   id="namedview906"
   showgrid="false"
   inkscape:zoom="2.5245922"
   inkscape:cx="399.27982"
   inkscape:cy="206.46081"
   inkscape:window-x="2391"
   inkscape:window-y="505"
   inkscape:window-maximized="1"
   inkscape:current-layer="Layer_1" />
<circle
   style="fill:#000036;fill-opacity:1"
   cx="256"
   cy="256"
   r="256"
   id="circle815" />
<path
   style="fill:#E6E6E6;"
   d="M15.608,344.208C51.556,442.132,145.616,512,256,512c2.752,0,5.472-0.12,8.204-0.208  C228.256,413.868,134.196,344,23.812,344C21.064,344,18.34,344.12,15.608,344.208z"
   id="path817" />
<g
   id="g823">
	<path
   style="fill:#CC584C;"
   d="M264.916,161.58c-7.884-9.888-30.012-5.18-55.332,11.76c-17.596,12.416-46.92,64.916-50.1,77.16   c-3.18,12.244,19.608,9.228,24.484,6.36c7.716-4.532,29.5-38.08,31.676-41.428c2.18-3.352,16.596-3.532,27.668-5.884   C246.484,197.304,260.564,168.288,264.916,161.58z"
   id="path819" />
	<path
   style="fill:#CC584C;"
   d="M352.136,218.228c12.248,3.176,16.948,25.308,11.76,55.328   c-4.192,21.128-40.224,69.272-50.104,77.156c-9.896,7.896-16.404-14.156-15.772-19.768c1.004-8.9,22.788-42.436,24.968-45.792   c2.18-3.352-3.528-16.596-5.888-27.664C326.996,249.588,347.78,224.932,352.136,218.228z"
   id="path821" />
</g>
<path
   style="fill:#E6E6E6;"
   d="M430.532,2.04c-10.072-6.536-75.46-1.304-125.58,75.852c-41.392,63.744-65.004,129.48-66.008,138.368  c10.068,6.544,36.904,23.964,36.904,23.964s26.84,17.424,36.904,23.96c7.72-4.528,60.344-56.2,99.568-116.584  C462.416,70.436,440.584,8.58,430.532,2.04z"
   id="path825" />
<circle
   style="fill:#263740;"
   cx="365.16"
   cy="102.68"
   r="40"
   id="circle827" />
<path
   style="fill:#C2E2F2;"
   d="M352.092,122.808c-11.092-7.216-14.26-22.1-7.06-33.2c7.216-11.1,22.096-14.264,33.208-7.064  c11.088,7.212,14.252,22.096,7.056,33.204C378.084,126.852,363.204,130.016,352.092,122.808z"
   id="path829" />
<g
   id="g835">
	<path
   style="fill:#e04738;fill-opacity:1"
   d="m 404.384,42.296 c 12.32,8 25.796,12.796 39.452,14.632 1.408,-30.712 -7.744,-51.272 -13.304,-54.9 -5.58,-3.608 -28.084,-3.6 -55.568,10.168 7.232,11.732 17.1,22.096 29.42,30.1 z"
   id="path831"
   inkscape:connector-curvature="0" />
	<path
   style="fill:#cc584c"
   d="m 306.392,288.668 c -2.4,3.692 -7.38,4.752 -11.072,2.356 l -73.8,-47.92 c -3.692,-2.404 -4.752,-7.384 -2.356,-11.076 l 8.72,-13.416 c 2.4,-3.688 7.376,-4.752 11.072,-2.352 l 73.796,47.928 c 3.696,2.4 4.752,7.376 2.36,11.076 z"
   id="path833"
   inkscape:connector-curvature="0" />
</g>
<path
   style="fill:#BF5347;"
   d="M250.36,242.752c-2.4,3.7-5.344,8.388-8.416,13.608l36.316,23.584  c3.524-4.932,6.604-9.54,9.008-13.236s5.344-8.384,8.416-13.6l-36.308-23.584C255.844,234.452,252.756,239.052,250.36,242.752z"
   id="path837" />
<path
   style="fill:#FFD464;"
   d="M228.228,247.452c-26.468,40.752-59.796,123.324-42.196,134.752  c17.592,11.428,79.464-52.592,105.936-93.364L228.228,247.452z"
   id="path839" />
<path
   style="fill:#F2B255;"
   d="M234.936,251.808c-26.468,40.752-36.66,81.12-22.768,90.14c13.896,9.024,46.62-16.712,73.088-57.46  L234.936,251.808z"
   id="path841" />
<ellipse
   transform="matrix(-0.5446 0.8387 -0.8387 -0.5446 628.9253 167.9466)"
   style="fill:#CC584C;"
   cx="268.866"
   cy="254.723"
   rx="67.996"
   ry="14"
   id="ellipse843" />
<ellipse
   transform="matrix(-0.3765 0.9264 -0.9264 -0.3765 483.8303 446.2663)"
   style="fill:#CCCCCC;"
   cx="91.742"
   cy="385.947"
   rx="18"
   ry="24"
   id="ellipse845" />
<path
   style="fill:#B3B3B3;"
   d="M93.04,402.676c-12.28-4.988-19.204-16.5-15.46-25.712c2.14-5.272,7.36-8.576,13.696-9.56  c-9.752-1.4-18.696,2.18-21.696,9.56c-3.744,9.212,3.18,20.724,15.46,25.712c5.252,2.132,10.584,2.644,15.316,1.916  C97.928,404.24,95.476,403.668,93.04,402.676z"
   id="path847" />
<ellipse
   transform="matrix(-0.7133 0.7008 -0.7008 -0.7133 549.9464 582.2459)"
   style="fill:#CCCCCC;"
   cx="155.891"
   cy="403.599"
   rx="11.803"
   ry="15.743"
   id="ellipse849" />
<path
   style="fill:#B3B3B3;"
   d="M152.204,413.828c-6.084-6.196-7.252-14.928-2.6-19.5c2.656-2.62,6.656-3.244,10.732-2.188  c-5.504-3.38-11.82-3.568-15.548,0.092c-4.652,4.58-3.484,13.304,2.604,19.504c2.604,2.652,5.688,4.356,8.728,5.14  C154.744,416.048,153.416,415.064,152.204,413.828z"
   id="path851" />
<ellipse
   transform="matrix(-0.2718 0.9624 -0.9624 -0.2718 618.3947 426.9582)"
   style="fill:#CCCCCC;"
   cx="147.659"
   cy="447.448"
   rx="17.905"
   ry="23.873"
   id="ellipse853" />
<path
   style="fill:#B3B3B3;"
   d="M150.844,463.824c-12.676-3.584-20.78-14.208-18.084-23.724c1.528-5.448,6.328-9.272,12.484-10.944  c-9.788-0.312-18.248,4.2-20.404,11.824c-2.692,9.512,5.416,20.14,18.1,23.72c5.424,1.536,10.752,1.452,15.356,0.216  C155.868,464.836,153.368,464.54,150.844,463.824z"
   id="path855" />
<g
   id="g873">
	<path
   style="fill:#FFD464;"
   d="M111.812,84c0,16-4,20-20,20c16,0,20,4,20,20c0-16,4-20,20-20C115.812,104,111.812,100,111.812,84z"
   id="path857" />
	<path
   style="fill:#FFD464;"
   d="M59.812,200c0,16-4,20-20,20c16,0,20,4,20,20c0-16,4-20,20-20C63.812,220,59.812,216,59.812,200z"
   id="path859" />
	<path
   style="fill:#FFD464;"
   d="M115.812,272c0,16-4,20-20,20c16,0,20,4,20,20c0-16,4-20,20-20C119.812,292,115.812,288,115.812,272   z"
   id="path861" />
	<path
   style="fill:#FFD464;"
   d="M327.812,404c0,16-4,20-20,20c16,0,20,4,20,20c0-16,4-20,20-20C331.812,424,327.812,420,327.812,404   z"
   id="path863" />
	<path
   style="fill:#FFD464;"
   d="M471.812,312c0,16-4,20-20,20c16,0,20,4,20,20c0-16,4-20,20-20C475.812,332,471.812,328,471.812,312   z"
   id="path865" />
	<path
   style="fill:#FFD464;"
   d="M459.812,172c0,16-4,20-20,20c16,0,20,4,20,20c0-16,4-20,20-20C463.812,192,459.812,188,459.812,172   z"
   id="path867" />
	<path
   style="fill:#FFD464;"
   d="M259.812,28c0,16-4,20-20,20c16,0,20,4,20,20c0-16,4-20,20-20C263.812,48,259.812,44,259.812,28z"
   id="path869" />
	<path
   style="fill:#FFD464;"
   d="M191.812,112c0,16-4,20-20,20c16,0,20,4,20,20c0-16,4-20,20-20C195.812,132,191.812,128,191.812,112   z"
   id="path871" />
</g>
<g
   id="g875">
</g>
<g
   id="g877">
</g>
<g
   id="g879">
</g>
<g
   id="g881">
</g>
<g
   id="g883">
</g>
<g
   id="g885">
</g>
<g
   id="g887">
</g>
<g
   id="g889">
</g>
<g
   id="g891">
</g>
<g
   id="g893">
</g>
<g
   id="g895">
</g>
<g
   id="g897">
</g>
<g
   id="g899">
</g>
<g
   id="g901">
</g>
<g
   id="g903">
</g>
<style
   id="style912"
   type="text/css">
	.st0{fill:url(#SVGID_1_);}
	.st1{fill:url(#SVGID_2_);}
</style><g
   id="g1054"
   transform="matrix(0.29968888,0,0,0.29968888,78.201138,142.20799)"><g
     id="g955">
	
		<linearGradient
   gradientTransform="matrix(1,0,0,-1,0,250)"
   y2="-558.53412"
   x2="973.25958"
   y1="900.32251"
   x1="-837.16821"
   gradientUnits="userSpaceOnUse"
   id="SVGID_1_">
		<stop
   id="stop914"
   style="stop-color:#FA247C"
   offset="0" />
		<stop
   id="stop916"
   style="stop-color:#FA3077"
   offset="2.382660e-02" />
		<stop
   id="stop918"
   style="stop-color:#F94F6B"
   offset="6.677425e-02" />
		<stop
   id="stop920"
   style="stop-color:#F88357"
   offset="0.1239" />
		<stop
   id="stop922"
   style="stop-color:#F6C83C"
   offset="0.1923" />
		<stop
   id="stop924"
   style="stop-color:#F5F02D"
   offset="0.2282" />
		<stop
   id="stop926"
   style="stop-color:#F5E932"
   offset="0.2541" />
		<stop
   id="stop928"
   style="stop-color:#F6D63F"
   offset="0.2915" />
		<stop
   id="stop930"
   style="stop-color:#F8B754"
   offset="0.3358" />
		<stop
   id="stop932"
   style="stop-color:#FA8B71"
   offset="0.3851" />
		<stop
   id="stop934"
   style="stop-color:#FB7282"
   offset="0.4107" />
		<stop
   id="stop936"
   style="stop-color:#AE20F2"
   offset="0.5496" />
		<stop
   id="stop938"
   style="stop-color:#60C0D2"
   offset="0.7282" />
		<stop
   id="stop940"
   style="stop-color:#77B1BE"
   offset="0.748" />
		<stop
   id="stop942"
   style="stop-color:#9A8BAD"
   offset="0.7965" />
		<stop
   id="stop944"
   style="stop-color:#C35E99"
   offset="0.861" />
		<stop
   id="stop946"
   style="stop-color:#E03E8B"
   offset="0.9188" />
		<stop
   id="stop948"
   style="stop-color:#F22A82"
   offset="0.9671" />
		<stop
   id="stop950"
   style="stop-color:#F9237F"
   offset="1" />
	</linearGradient>
	<path
   id="path953"
   d="M 125,250 C 56.1,250 0,193.9 0,125 0,56.1 56.1,0 125,0 c 68.9,0 125,56.1 125,125 0,68.9 -56.1,125 -125,125 z m 0,-238.8 c -62.7,0 -113.7,51 -113.7,113.7 0,62.7 51,113.7 113.7,113.7 62.7,0 113.7,-51 113.7,-113.7 0,-62.7 -51,-113.7 -113.7,-113.7 z"
   class="st0"
   inkscape:connector-curvature="0"
   style="fill:url(#SVGID_1_)" />
</g><g
     id="g998">
	
		<linearGradient
   gradientTransform="matrix(1,0,0,-1,0,250)"
   y2="-558.71637"
   x2="973.11279"
   y1="900.14032"
   x1="-837.31519"
   gradientUnits="userSpaceOnUse"
   id="SVGID_2_">
		<stop
   id="stop957"
   style="stop-color:#FA247C"
   offset="0" />
		<stop
   id="stop959"
   style="stop-color:#FA3077"
   offset="2.382660e-02" />
		<stop
   id="stop961"
   style="stop-color:#F94F6B"
   offset="6.677425e-02" />
		<stop
   id="stop963"
   style="stop-color:#F88357"
   offset="0.1239" />
		<stop
   id="stop965"
   style="stop-color:#F6C83C"
   offset="0.1923" />
		<stop
   id="stop967"
   style="stop-color:#F5F02D"
   offset="0.2282" />
		<stop
   id="stop969"
   style="stop-color:#F5E932"
   offset="0.2541" />
		<stop
   id="stop971"
   style="stop-color:#F6D63F"
   offset="0.2915" />
		<stop
   id="stop973"
   style="stop-color:#F8B754"
   offset="0.3358" />
		<stop
   id="stop975"
   style="stop-color:#FA8B71"
   offset="0.3851" />
		<stop
   id="stop977"
   style="stop-color:#FB7282"
   offset="0.4107" />
		<stop
   id="stop979"
   style="stop-color:#AE20F2"
   offset="0.5496" />
		<stop
   id="stop981"
   style="stop-color:#60C0D2"
   offset="0.7282" />
		<stop
   id="stop983"
   style="stop-color:#77B1BE"
   offset="0.748" />
		<stop
   id="stop985"
   style="stop-color:#9A8BAD"
   offset="0.7965" />
		<stop
   id="stop987"
   style="stop-color:#C35E99"
   offset="0.861" />
		<stop
   id="stop989"
   style="stop-color:#E03E8B"
   offset="0.9188" />
		<stop
   id="stop991"
   style="stop-color:#F22A82"
   offset="0.9671" />
		<stop
   id="stop993"
   style="stop-color:#F9237F"
   offset="1" />
	</linearGradient>
	<path
   id="path996"
   d="m 146.5,196.8 -19,-0.1 -0.1,-20.7 -4.6,-0.1 v 20.8 H 103 v -20.9 l -25.9,0.4 v -21.3 h 15.4 c 1.5,0 1.8,-1.1 1.8,-3.1 0,-2 0,-50.1 0,-53.4 0,-3.8 -1.1,-4.7 -5.3,-4.7 -4.7,0 -12,0 -12,0 V 73.8 l 25.9,0.1 V 53 h 19.6 v 20.8 h 4.6 V 53 h 19.2 v 20.8 c 0.1,0 0.6,0 0.9,0 17.2,0 30.6,10.1 30.6,25.3 0,11.8 -4.7,15.6 -9.2,19 4.5,1.9 14.2,8 14.2,26.8 0,30.3 -32.9,30.9 -36.7,30.9 z m -13.3,-5.9 h 7.4 v -21.3 c 0,0 5.2,0.1 5.9,0.1 25.6,0 30.8,-16 30.8,-25 0,-23.2 -18.8,-25.6 -18.8,-25.6 0,0 13.6,-5.1 13.6,-19.6 0,-9.3 -7.1,-19.8 -30.1,-19.8 -0.5,0 -1.4,0 -1.4,0 v -21 l -7.4,0.2 -0.1,20.7 -16,-0.1 V 58.8 h -8.2 v 20.8 l -25.6,0.1 v 8 c 1.6,-0.1 3.8,-0.1 6.1,0 4.6,0.1 10.8,1.3 11.1,10.5 0.1,3.2 0,51.5 0,53.2 0,2.2 0.2,5.3 -1.5,7.3 -1.6,1.8 -3.3,2.1 -6.1,2.1 -2.5,0 -7.9,0 -9.5,0 v 9.3 l 25.6,-0.4 v 21 h 8.2 v -21 h 16 z m 5.9,-30.2 c -4.9,0 -18.5,0 -19,-0.1 h -2.9 L 117,126.1 h 2.9 c 0.6,0 8.6,0 16,0 9.3,0 22.8,2.7 22.8,17.4 0,6.8 -3.4,17.2 -19.6,17.2 z m -16.2,-5.9 c 4,0 11.4,0 14.6,0 8.5,0 15.5,-3.4 15.5,-11.5 0,-6.8 -5.5,-11.1 -16.3,-11.1 -4.9,0 -9.2,0 -13.8,0 z m 13.7,-36.3 c -7.4,0 -19.4,0 -19.4,0 V 87.6 c 0,0 16.2,0 20.9,0 8.1,0 14.5,5.4 14.5,15.5 0,9.7 -4.9,15.4 -16,15.4 z M 123.7,113 c 1.2,0 7.8,0 12.2,0 7.3,0 10.7,-4.2 10.7,-9.8 0,-4.9 -3.2,-9.6 -12.9,-9.6 -4.2,0 -8.6,0.2 -10.2,0.2 z"
   class="st1"
   inkscape:connector-curvature="0"
   style="fill:url(#SVGID_2_)" />
</g></g><style
   id="style1056"
   type="text/css">
	.st0{fill:url(#SVGID_1_);}
	.st1{fill:url(#SVGID_2_);}
	.st2{fill:url(#SVGID_3_);}
</style><style
   id="style1239"
   type="text/css">
	.st0{fill:url(#SVGID_1_);}
	.st1{fill:url(#SVGID_2_);}
</style><g
   id="g1381"
   transform="matrix(0.1919487,0,0,0.1919487,412.51255,242.02609)"><g
     id="g1282">
	
		<linearGradient
   gradientTransform="matrix(1,0,0,-1,0,250)"
   y2="-1125.2378"
   x2="1676.5338"
   y1="333.6189"
   x1="-133.8941"
   gradientUnits="userSpaceOnUse"
   id="SVGID_1_-1">
		<stop
   id="stop1241"
   style="stop-color:#FA247C"
   offset="0" />
		<stop
   id="stop1243"
   style="stop-color:#FA3077"
   offset="2.382660e-02" />
		<stop
   id="stop1245"
   style="stop-color:#F94F6B"
   offset="6.677425e-02" />
		<stop
   id="stop1247"
   style="stop-color:#F88357"
   offset="0.1239" />
		<stop
   id="stop1249"
   style="stop-color:#F6C83C"
   offset="0.1923" />
		<stop
   id="stop1251"
   style="stop-color:#F5F02D"
   offset="0.2282" />
		<stop
   id="stop1253"
   style="stop-color:#F5E932"
   offset="0.2541" />
		<stop
   id="stop1255"
   style="stop-color:#F6D63F"
   offset="0.2915" />
		<stop
   id="stop1257"
   style="stop-color:#F8B754"
   offset="0.3358" />
		<stop
   id="stop1259"
   style="stop-color:#FA8B71"
   offset="0.3851" />
		<stop
   id="stop1261"
   style="stop-color:#FB7282"
   offset="0.4107" />
		<stop
   id="stop1263"
   style="stop-color:#AE20F2"
   offset="0.5496" />
		<stop
   id="stop1265"
   style="stop-color:#60C0D2"
   offset="0.7282" />
		<stop
   id="stop1267"
   style="stop-color:#77B1BE"
   offset="0.748" />
		<stop
   id="stop1269"
   style="stop-color:#9A8BAD"
   offset="0.7965" />
		<stop
   id="stop1271"
   style="stop-color:#C35E99"
   offset="0.861" />
		<stop
   id="stop1273"
   style="stop-color:#E03E8B"
   offset="0.9188" />
		<stop
   id="stop1275"
   style="stop-color:#F22A82"
   offset="0.9671" />
		<stop
   id="stop1277"
   style="stop-color:#F9237F"
   offset="1" />
	</linearGradient>
	<path
   style="fill:url(#SVGID_1_-1)"
   id="path1280"
   d="M 125,250 C 56.1,250 0,193.9 0,125 0,56.1 56.1,0 125,0 c 68.9,0 125,56.1 125,125 0,68.9 -56.1,125 -125,125 z m 0,-238.8 c -62.7,0 -113.7,51 -113.7,113.7 0,62.7 51,113.7 113.7,113.7 62.7,0 113.7,-51 113.7,-113.7 C 238.8,62.2 187.8,11.2 125,11.2 Z"
   class="st0"
   inkscape:connector-curvature="0" />
</g><g
     id="g1325">
	
		<linearGradient
   gradientTransform="matrix(1,0,0,-1,0,250)"
   y2="-1132.2974"
   x2="1670.8451"
   y1="326.5592"
   x1="-139.58279"
   gradientUnits="userSpaceOnUse"
   id="SVGID_2_-9">
		<stop
   id="stop1284"
   style="stop-color:#FA247C"
   offset="0" />
		<stop
   id="stop1286"
   style="stop-color:#FA3077"
   offset="2.382660e-02" />
		<stop
   id="stop1288"
   style="stop-color:#F94F6B"
   offset="6.677425e-02" />
		<stop
   id="stop1290"
   style="stop-color:#F88357"
   offset="0.1239" />
		<stop
   id="stop1292"
   style="stop-color:#F6C83C"
   offset="0.1923" />
		<stop
   id="stop1294"
   style="stop-color:#F5F02D"
   offset="0.2282" />
		<stop
   id="stop1296"
   style="stop-color:#F5E932"
   offset="0.2541" />
		<stop
   id="stop1298"
   style="stop-color:#F6D63F"
   offset="0.2915" />
		<stop
   id="stop1300"
   style="stop-color:#F8B754"
   offset="0.3358" />
		<stop
   id="stop1302"
   style="stop-color:#FA8B71"
   offset="0.3851" />
		<stop
   id="stop1304"
   style="stop-color:#FB7282"
   offset="0.4107" />
		<stop
   id="stop1306"
   style="stop-color:#AE20F2"
   offset="0.5496" />
		<stop
   id="stop1308"
   style="stop-color:#60C0D2"
   offset="0.7282" />
		<stop
   id="stop1310"
   style="stop-color:#77B1BE"
   offset="0.748" />
		<stop
   id="stop1312"
   style="stop-color:#9A8BAD"
   offset="0.7965" />
		<stop
   id="stop1314"
   style="stop-color:#C35E99"
   offset="0.861" />
		<stop
   id="stop1316"
   style="stop-color:#E03E8B"
   offset="0.9188" />
		<stop
   id="stop1318"
   style="stop-color:#F22A82"
   offset="0.9671" />
		<stop
   id="stop1320"
   style="stop-color:#F9237F"
   offset="1" />
	</linearGradient>
	<path
   style="fill:url(#SVGID_2_-9)"
   id="path1323"
   d="m 128.6,152.9 4.6,-17.2 16,-5.9 8.2,-32.1 -15.8,6 11.2,-42.9 h -50.7 l -16.9,63.7 -13.9,5.2 -8.8,32.2 14.1,-5.1 L 68,189 h 110 l 9.5,-36.2 z m 44.1,29.6 H 76.9 l 9.5,-36.7 -14,5.3 4.5,-16.5 13.8,-5.1 16.6,-62 36.9,-0.1 -12.3,46.9 16,-5.9 -4.2,16.1 -16,5.9 -7.8,28.9 H 179 Z"
   class="st1"
   inkscape:connector-curvature="0" />
</g></g><style
   id="style1633"
   type="text/css">
	.st0{fill:url(#SVGID_1_);}
	.st1{fill:url(#SVGID_2_);}
	.st2{fill:url(#SVGID_3_);}
	.st3{fill:url(#SVGID_4_);}
</style><g
   id="g1856"
   transform="matrix(0.16659807,0,0,0.16659807,258.42826,370.36365)"><path
     style="fill:url(#SVGID_1_-7)"
     id="path1674"
     d="M 125,250 C 56.1,250 0,193.9 0,125 0,56.1 56.1,0 125,0 c 68.9,0 125,56.1 125,125 0,68.9 -56.1,125 -125,125 z m 0,-238.8 c -62.7,0 -113.7,51 -113.7,113.7 0,62.7 51,113.7 113.7,113.7 62.7,0 113.7,-51 113.7,-113.7 0,-62.7 -51,-113.7 -113.7,-113.7 z"
     class="st0"
     inkscape:connector-curvature="0" /><g
     id="g1758">
	
		<linearGradient
   gradientTransform="matrix(1,0,0,-1,0,250)"
   y2="-118.2837"
   x2="427.05191"
   y1="1340.5725"
   x1="-1383.3754"
   gradientUnits="userSpaceOnUse"
   id="SVGID_2_-95">
		<stop
   id="stop1676"
   style="stop-color:#FA247C"
   offset="0" />
		<stop
   id="stop1678"
   style="stop-color:#FA3077"
   offset="2.382660e-02" />
		<stop
   id="stop1680"
   style="stop-color:#F94F6B"
   offset="6.677425e-02" />
		<stop
   id="stop1682"
   style="stop-color:#F88357"
   offset="0.1239" />
		<stop
   id="stop1684"
   style="stop-color:#F6C83C"
   offset="0.1923" />
		<stop
   id="stop1686"
   style="stop-color:#F5F02D"
   offset="0.2282" />
		<stop
   id="stop1688"
   style="stop-color:#F5E932"
   offset="0.2541" />
		<stop
   id="stop1690"
   style="stop-color:#F6D63F"
   offset="0.2915" />
		<stop
   id="stop1692"
   style="stop-color:#F8B754"
   offset="0.3358" />
		<stop
   id="stop1694"
   style="stop-color:#FA8B71"
   offset="0.3851" />
		<stop
   id="stop1696"
   style="stop-color:#FB7282"
   offset="0.4107" />
		<stop
   id="stop1698"
   style="stop-color:#AE20F2"
   offset="0.5496" />
		<stop
   id="stop1700"
   style="stop-color:#60C0D2"
   offset="0.7282" />
		<stop
   id="stop1702"
   style="stop-color:#77B1BE"
   offset="0.748" />
		<stop
   id="stop1704"
   style="stop-color:#9A8BAD"
   offset="0.7965" />
		<stop
   id="stop1706"
   style="stop-color:#C35E99"
   offset="0.861" />
		<stop
   id="stop1708"
   style="stop-color:#E03E8B"
   offset="0.9188" />
		<stop
   id="stop1710"
   style="stop-color:#F22A82"
   offset="0.9671" />
		<stop
   id="stop1712"
   style="stop-color:#F9237F"
   offset="1" />
	</linearGradient>
	<path
   style="fill:url(#SVGID_2_-95)"
   id="path1715"
   d="m 119.9,29.4 h 10 c 10.3,0.7 20.7,2.7 30.3,6.7 23.9,9.4 43.5,28.8 53.2,52.7 13.3,31.6 7.5,70.3 -14.6,96.7 -14.9,18.3 -36.9,30.8 -60.4,34 -22,3.2 -45.2,-1.6 -64,-13.5 C 59.8,196.9 47.8,183.9 40.1,168.7 30.1,149.5 27,127 31.5,105.8 36.2,82.4 50.2,61 69.7,47.2 84.3,36.5 102,30.5 119.9,29.4 m -5.8,4.2 C 85,36.9 58.3,55.3 44.4,81 35,98.1 31.3,118.3 34.2,137.6 c 3.2,23.3 15.9,45 34.3,59.4 14.1,11.2 31.5,18 49.4,19.3 20.2,1.6 41,-3.8 57.9,-15.2 20.7,-13.6 35.3,-36 39.5,-60.4 2.5,-14.3 1.6,-29.4 -2.8,-43.3 C 206.2,77.2 192.5,59.3 174.8,47.9 157,36.1 135.1,31 114.1,33.6 Z"
   class="st1"
   inkscape:connector-curvature="0" />
	
		<linearGradient
   gradientTransform="matrix(1,0,0,-1,0,250)"
   y2="-118.2083"
   x2="427.1127"
   y1="1340.6478"
   x1="-1383.3147"
   gradientUnits="userSpaceOnUse"
   id="SVGID_3_">
		<stop
   id="stop1717"
   style="stop-color:#FA247C"
   offset="0" />
		<stop
   id="stop1719"
   style="stop-color:#FA3077"
   offset="2.382660e-02" />
		<stop
   id="stop1721"
   style="stop-color:#F94F6B"
   offset="6.677425e-02" />
		<stop
   id="stop1723"
   style="stop-color:#F88357"
   offset="0.1239" />
		<stop
   id="stop1725"
   style="stop-color:#F6C83C"
   offset="0.1923" />
		<stop
   id="stop1727"
   style="stop-color:#F5F02D"
   offset="0.2282" />
		<stop
   id="stop1729"
   style="stop-color:#F5E932"
   offset="0.2541" />
		<stop
   id="stop1731"
   style="stop-color:#F6D63F"
   offset="0.2915" />
		<stop
   id="stop1733"
   style="stop-color:#F8B754"
   offset="0.3358" />
		<stop
   id="stop1735"
   style="stop-color:#FA8B71"
   offset="0.3851" />
		<stop
   id="stop1737"
   style="stop-color:#FB7282"
   offset="0.4107" />
		<stop
   id="stop1739"
   style="stop-color:#AE20F2"
   offset="0.5496" />
		<stop
   id="stop1741"
   style="stop-color:#60C0D2"
   offset="0.7282" />
		<stop
   id="stop1743"
   style="stop-color:#77B1BE"
   offset="0.748" />
		<stop
   id="stop1745"
   style="stop-color:#9A8BAD"
   offset="0.7965" />
		<stop
   id="stop1747"
   style="stop-color:#C35E99"
   offset="0.861" />
		<stop
   id="stop1749"
   style="stop-color:#E03E8B"
   offset="0.9188" />
		<stop
   id="stop1751"
   style="stop-color:#F22A82"
   offset="0.9671" />
		<stop
   id="stop1753"
   style="stop-color:#F9237F"
   offset="1" />
	</linearGradient>
	<path
   id="path1756"
   d="m 116.3,71.3 c 16.6,-2.8 34.5,2.7 46.3,14.6 10.6,10 16.8,24.6 16.5,39.2 0.2,14.5 -6,28.9 -16.6,38.8 -11.5,11.4 -28.3,16.8 -44.3,14.7 C 103.1,176.8 89,168.3 80.5,155.7 71,142.3 68.4,124.4 73.3,108.7 79,89.4 96.4,74.3 116.3,71.3 m 3.3,3.3 c 0,4.7 0,9.5 0,14.2 2.4,0 4.7,0 7.1,0 0,-4.8 0,-9.8 0,-14.6 -2.3,0.1 -4.8,0.2 -7.1,0.4 m 17,14.4 c 6.2,0.8 12.9,1.8 17.9,6 7.6,6.8 6.6,21.2 -2.7,26.1 5.5,1.3 11.1,5.1 12.5,10.8 1.8,7.6 0.4,16.8 -5.8,22.2 -6.1,5.1 -14.3,5.6 -21.9,6.3 0,4.5 0,8.8 0,13.3 15.9,-3.9 29.5,-15.8 35.4,-31 5.5,-14.1 4.2,-30.7 -3.5,-43.7 -6.9,-11.8 -18.6,-20.3 -31.7,-23.6 -0.2,4.7 -0.2,9.1 -0.2,13.6 M 89.4,88.8 c 6.8,0.4 13.8,0.2 20.6,0.2 0,-4.2 0,-8.3 0,-12.6 -7.8,2.6 -14.6,7.1 -20.6,12.4 m -0.7,0.7 c -2.9,2.8 -5.4,6.3 -7.4,10.1 -8.1,13.8 -9.1,31.4 -2.2,46 5.9,12.9 17.4,23 30.9,27.4 0,-4.2 0,-8.3 0,-12.6 -6.9,-0.1 -13.9,0.2 -20.7,-0.2 0.1,-3.9 0.9,-7.6 2.2,-11.3 3.4,-0.1 6.9,0.5 10.1,-0.6 1.9,-1.6 1.4,-4.2 1.4,-6.5 -0.1,-12.6 0,-25 -0.1,-37.6 0.1,-2 -1.2,-4.2 -3.3,-4.6 C 96.1,98.9 92.5,99.1 89,99.1 Z m 31.2,10.7 v 18.5 c 6.2,-0.1 13.1,0.6 18.5,-3.1 4.5,-2.9 4.2,-10.3 -0.5,-13.1 -5.4,-3 -12,-2.2 -18,-2.3 m 0,28.4 v 20.6 c 7.6,-0.6 16.2,0.7 22.8,-3.9 4.7,-3.2 4.2,-10.9 -0.7,-13.6 -6.7,-4.1 -14.6,-2.8 -22.1,-3.1 m -0.3,32.1 c 0,4.7 0,9.5 0,14.2 2.5,0.1 4.9,0.2 7.4,0.4 0,-4.8 0,-9.8 0,-14.6 z"
   class="st2"
   inkscape:connector-curvature="0"
   style="fill:url(#SVGID_3_)" />
</g><path
     id="path1799"
     d="m 114.5,38.6 c 16.7,-1.8 34,0.7 49,8.5 19.3,9.5 34.8,26.6 42.5,46.7 7.8,20.1 7.6,43.3 -0.5,63.3 -12.2,31.6 -44.6,54.3 -78.6,54.4 -20,0.7 -40.1,-6 -55.7,-18.5 C 54.6,180 43,160.6 39.5,139.8 35.9,119.1 40,97.2 51,79.4 64.4,57 88.7,41.6 114.5,38.6 m -2.9,28.1 C 98,69.8 85.6,77.8 77.3,88.9 68.1,101 63.9,116.8 65.8,131.8 c 1.8,16.1 10.6,31.4 23.6,40.9 12.2,9.2 28.2,13.3 43.4,11.2 18.8,-2.2 36,-14.2 44.8,-30.9 6.6,-12 8.3,-26.1 6,-39.5 -3.1,-16.1 -13.2,-30.8 -27.2,-39.4 -13.3,-8.2 -29.6,-11 -44.8,-7.4 z"
     class="st3"
     inkscape:connector-curvature="0"
     style="fill:url(#SVGID_4_)" /></g></svg>